<svg width="341" height="332" viewBox="0 0 341 332" fill="none" xmlns="http://www.w3.org/2000/svg">
<rect width="341" height="332" fill="#F5F5F5"/>
<path d="M282.959 166.226C282.959 136.67 271.568 108.25 251.155 86.8759C230.741 65.5015 202.875 52.8165 173.35 51.4579C143.825 50.0993 114.912 60.1717 92.6221 79.5811C70.332 98.9905 56.3795 126.244 53.6652 155.675C50.9509 185.107 59.6836 214.452 78.0479 237.611C96.4123 260.77 122.995 275.96 152.271 280.024C181.546 284.089 211.262 276.714 235.241 259.434C259.219 242.153 275.615 216.296 281.021 187.239L168.069 166.226H282.959Z" fill="#DD6F4F"/>
<path d="M73.8687 148.332L51.236 152.696L47.8292 142.472L37.3413 143.124L35.6881 153.663L12.0851 152.823L26.5811 90.4121L52.0768 87.533L73.8687 148.332ZM45.2975 128.499L40.8056 112.708L38.3976 128.928L45.2975 128.499ZM130.718 125.401C130.934 128.866 131.102 132.304 131.221 135.714C131.37 139.091 131.474 142.501 131.535 145.945L105.01 147.134C105.593 141.649 106.053 136.186 106.392 130.747C106.729 125.277 106.726 119.782 106.382 114.262C106.358 113.864 106.302 113.221 106.216 112.333C106.13 111.446 106.007 110.453 105.846 109.355C105.684 108.226 105.474 107.084 105.218 105.93C104.99 104.744 104.692 103.67 104.324 102.707C103.987 101.743 103.585 100.968 103.118 100.381C102.679 99.762 102.168 99.4705 101.585 99.5068C100.543 99.5717 99.6725 99.9336 98.9747 100.593C98.3075 101.25 97.7591 102.085 97.3295 103.096C96.9287 104.076 96.6274 105.172 96.4259 106.385C96.2243 107.598 96.084 108.808 96.0051 110.013C95.9568 111.217 95.9354 112.357 95.9409 113.434C95.9751 114.479 96.0131 115.338 96.0551 116.013C96.2395 121.451 96.4526 126.856 96.6945 132.228C96.9345 137.57 97.1476 142.974 97.3338 148.443L73.9369 150.914C73.8768 140.051 73.7898 129.251 73.6759 118.514C73.5927 107.775 73.3831 96.9822 73.0469 86.136L94.6901 83.6812L94.964 91.0526C95.7578 89.9565 96.6167 88.918 97.5408 87.9369C98.4956 86.954 99.5203 86.1052 100.615 85.3906C101.708 84.6453 102.871 84.0496 104.106 83.6034C105.369 83.1246 106.706 82.8413 108.116 82.7535C110.723 82.5914 113.034 82.8786 115.05 83.6151C117.066 84.3517 118.826 85.4121 120.328 86.7963C121.83 88.1805 123.12 89.8551 124.196 91.8199C125.271 93.7541 126.17 95.8377 126.894 98.0708C127.618 100.304 128.21 102.653 128.671 105.118C129.131 107.552 129.481 109.962 129.722 112.349C129.993 114.733 130.198 117.044 130.338 119.283C130.477 121.522 130.604 123.561 130.718 125.401ZM186.382 108.639C186.649 112.932 186.336 116.815 185.444 120.288C184.552 123.76 183.191 126.877 181.362 129.639C179.561 132.367 177.354 134.737 174.739 136.747C172.124 138.756 169.229 140.46 166.052 141.859C162.874 143.226 159.462 144.3 155.817 145.081C152.202 145.86 148.462 146.37 144.598 146.61C143.157 146.7 141.744 146.757 140.361 146.782C138.975 146.776 137.557 146.741 136.106 146.677L133.668 86.7052C136.974 85.422 140.393 84.4551 143.923 83.8045C147.483 83.1213 151.026 82.6699 154.552 82.4505C158.938 82.1777 163.008 82.5402 166.765 83.5379C170.521 84.5356 173.808 86.1474 176.624 88.3734C179.439 90.5688 181.691 93.3686 183.381 96.773C185.099 100.145 186.099 104.1 186.382 108.639ZM156.201 128.249C158.024 127.858 159.661 127.202 161.112 126.281C162.592 125.327 163.846 124.202 164.873 122.907C165.899 121.581 166.655 120.118 167.14 118.517C167.654 116.884 167.856 115.179 167.745 113.4C167.636 111.652 167.351 110.038 166.89 108.558C166.426 107.048 165.746 105.767 164.85 104.714C163.951 103.631 162.807 102.809 161.418 102.249C160.026 101.659 158.348 101.394 156.381 101.454L156.201 128.249ZM242.705 97.2844C242.854 99.6764 242.775 101.867 242.467 103.856C242.189 105.813 241.656 107.632 240.867 109.313C240.079 110.993 239.023 112.567 237.698 114.035C236.373 115.503 234.753 116.928 232.838 118.309L244.999 137.132L224.551 142.467L216.248 123.312L210.556 123.851L210.918 143.039L191.138 144.269C190.857 137.268 190.562 130.298 190.253 123.359C189.975 116.419 189.711 109.448 189.46 102.444C189.302 98.9137 189.146 95.4139 188.991 91.9448C188.837 88.4756 188.742 84.972 188.707 81.4339C190.804 80.503 192.879 79.7121 194.932 79.061C196.985 78.4099 199.045 77.8815 201.113 77.4758C203.21 77.0375 205.329 76.7056 207.47 76.48C209.64 76.2219 211.859 76.0222 214.129 75.8811C217.624 75.6636 221.028 75.9443 224.34 76.7234C227.68 77.47 230.668 78.731 233.303 80.5065C235.938 82.2821 238.096 84.5644 239.778 87.3536C241.491 90.1408 242.467 93.4511 242.705 97.2844ZM222.189 100.039C222.109 98.7505 221.851 97.5813 221.416 96.5309C221.012 95.4786 220.434 94.591 219.681 93.8682C218.956 93.1129 218.06 92.5529 216.99 92.1885C215.95 91.7914 214.739 91.6359 213.359 91.7217C212.746 91.7599 212.151 91.8431 211.574 91.9713C210.995 92.0689 210.434 92.2115 209.892 92.3992L210.221 109.557L211.325 109.488C212.643 109.406 213.967 109.155 215.295 108.733C216.654 108.31 217.848 107.712 218.878 106.94C219.938 106.166 220.771 105.206 221.377 104.06C222.013 102.912 222.284 101.572 222.189 100.039ZM306.443 133.863L283.811 138.227L280.404 128.002L269.916 128.655L268.263 139.194L244.66 138.353L259.156 75.9428L284.651 73.0636L306.443 133.863ZM277.872 114.029L273.38 98.239L270.972 114.459L277.872 114.029ZM49.5245 221.679L48.8632 242.223L10.3203 247.668C9.83844 236.954 9.37574 226.301 8.93218 215.707C8.5193 205.112 8.14859 194.453 7.82007 183.729L31.7399 182.241C31.4524 189.001 31.1956 195.759 30.9694 202.515C30.7413 209.24 30.7011 216.015 30.8486 222.841C32.2938 222.812 33.7217 222.754 35.1323 222.666C36.543 222.579 37.969 222.49 39.4103 222.4C41.1276 222.293 42.8133 222.173 44.4674 222.04C46.1215 221.906 47.8072 221.786 49.5245 221.679ZM111.077 240.199L88.4446 244.563L85.0378 234.339L74.5499 234.991L72.8967 245.53L49.2937 244.69L63.7897 182.279L89.2854 179.4L111.077 240.199ZM82.5061 220.366L78.0142 204.575L75.6062 220.795L82.5061 220.366ZM167.927 217.268C168.143 220.733 168.31 224.171 168.43 227.58C168.579 230.957 168.683 234.368 168.743 237.812L142.219 239.001C142.801 233.516 143.262 228.053 143.601 222.614C143.938 217.144 143.934 211.649 143.591 206.129C143.566 205.73 143.511 205.087 143.425 204.2C143.339 203.313 143.215 202.32 143.055 201.221C142.892 200.093 142.683 198.951 142.426 197.797C142.198 196.611 141.901 195.536 141.533 194.574C141.196 193.61 140.794 192.835 140.326 192.248C139.887 191.629 139.377 191.337 138.794 191.374C137.751 191.439 136.881 191.8 136.183 192.46C135.516 193.117 134.968 193.951 134.538 194.963C134.137 195.942 133.836 197.039 133.634 198.252C133.433 199.465 133.293 200.674 133.214 201.88C133.165 203.084 133.144 204.224 133.149 205.301C133.184 206.346 133.222 207.205 133.264 207.88C133.448 213.317 133.661 218.722 133.903 224.095C134.143 229.436 134.356 234.841 134.542 240.31L111.146 242.781C111.085 231.918 110.998 221.117 110.885 210.38C110.801 199.642 110.592 188.849 110.256 178.003L131.899 175.548L132.173 182.919C132.966 181.823 133.825 180.785 134.749 179.804C135.704 178.821 136.729 177.972 137.823 177.257C138.916 176.512 140.08 175.916 141.314 175.47C142.577 174.991 143.914 174.708 145.325 174.62C147.932 174.458 150.243 174.745 152.259 175.482C154.275 176.219 156.034 177.279 157.536 178.663C159.039 180.047 160.328 181.722 161.405 183.687C162.479 185.621 163.379 187.705 164.103 189.938C164.826 192.171 165.419 194.52 165.88 196.985C166.339 199.419 166.689 201.829 166.93 204.215C167.202 206.6 167.407 208.911 167.546 211.15C167.686 213.389 167.813 215.428 167.927 217.268ZM228.718 226.508C227.389 228.407 225.708 230.097 223.676 231.578C221.644 233.059 219.445 234.319 217.077 235.359C214.71 236.399 212.268 237.229 209.751 237.847C207.233 238.435 204.823 238.8 202.523 238.943C198.077 239.22 193.936 238.723 190.101 237.453C186.267 236.183 182.901 234.299 180.006 231.801C177.14 229.27 174.824 226.197 173.06 222.582C171.296 218.967 170.277 214.967 170.005 210.581C169.797 207.239 169.978 203.964 170.548 200.758C171.118 197.551 172.023 194.524 173.262 191.677C174.531 188.827 176.122 186.188 178.033 183.761C179.945 181.333 182.152 179.21 184.656 177.392C187.16 175.573 189.933 174.123 192.974 173.041C196.045 171.927 199.329 171.261 202.825 171.043C204.143 170.961 205.558 170.935 207.068 170.964C208.576 170.962 210.075 171.054 211.564 171.238C213.082 171.39 214.561 171.652 216 172.024C217.439 172.397 218.763 172.884 219.97 173.486L219.775 191.138C218.018 190.601 216.212 190.282 214.359 190.182C212.535 190.049 210.748 190.037 209 190.146C206.547 190.299 204.268 190.779 202.163 191.587C200.087 192.363 198.292 193.444 196.778 194.831C195.294 196.217 194.152 197.904 193.352 199.893C192.552 201.882 192.232 204.15 192.39 206.695C192.489 208.29 192.8 209.825 193.323 211.301C193.844 212.746 194.57 214.025 195.501 215.137C196.461 216.216 197.607 217.068 198.939 217.694C200.301 218.317 201.841 218.575 203.559 218.468C204.724 218.396 205.91 218.168 207.118 217.785C208.356 217.4 209.397 216.812 210.241 216.021L210.201 212.421L199.15 212.924L198.843 199.09C203.403 198.652 207.965 198.245 212.528 197.869C217.09 197.462 221.681 197.023 226.3 196.55L228.718 226.508ZM287.736 200.578C287.91 203.369 287.755 206.088 287.274 208.735C286.79 211.351 286.005 213.831 284.92 216.177C283.865 218.521 282.523 220.698 280.893 222.708C279.292 224.685 277.445 226.416 275.352 227.901C273.289 229.384 271.009 230.588 268.511 231.513C266.012 232.407 263.336 232.943 260.484 233.121C257.724 233.292 255.065 233.104 252.506 232.555C249.978 232.004 247.586 231.168 245.331 230.046C243.073 228.893 241 227.483 239.111 225.815C237.25 224.115 235.624 222.215 234.231 220.116C232.867 217.984 231.754 215.683 230.892 213.212C230.061 210.739 229.56 208.138 229.391 205.409C229.225 202.741 229.385 200.114 229.87 197.529C230.354 194.913 231.123 192.433 232.178 190.089C233.263 187.744 234.606 185.567 236.205 183.559C237.804 181.55 239.618 179.791 241.648 178.279C243.709 176.765 245.958 175.548 248.394 174.627C250.83 173.706 253.429 173.159 256.189 172.987C260.635 172.711 264.726 173.149 268.461 174.302C272.227 175.453 275.478 177.236 278.214 179.652C280.979 182.035 283.181 185.008 284.818 188.569C286.485 192.098 287.457 196.101 287.736 200.578ZM267.386 203.045C267.304 201.726 267.026 200.466 266.551 199.264C266.105 198.03 265.484 196.96 264.689 196.055C263.892 195.12 262.923 194.395 261.783 193.881C260.671 193.335 259.41 193.105 258 193.193C256.558 193.283 255.287 193.623 254.184 194.215C253.082 194.807 252.146 195.589 251.375 196.56C250.633 197.499 250.085 198.596 249.732 199.849C249.377 201.072 249.242 202.358 249.326 203.707C249.406 204.995 249.67 206.272 250.118 207.537C250.566 208.802 251.191 209.933 251.992 210.93C252.793 211.926 253.75 212.713 254.863 213.291C256.007 213.866 257.3 214.109 258.741 214.019C260.183 213.929 261.453 213.573 262.554 212.951C263.683 212.296 264.616 211.468 265.355 210.468C266.091 209.437 266.635 208.279 266.986 206.995C267.337 205.711 267.47 204.394 267.386 203.045ZM338.661 206.369C338.922 210.57 338.412 214.25 337.131 217.408C335.879 220.534 334.042 223.172 331.62 225.324C329.228 227.443 326.359 229.084 323.014 230.246C319.698 231.376 316.093 232.062 312.198 232.305C310.696 232.398 309.027 232.302 307.193 232.016C305.39 231.728 303.55 231.35 301.674 230.881C299.795 230.383 297.977 229.849 296.217 229.281C294.487 228.681 292.943 228.115 291.586 227.584L292.489 209.426C295.192 210.828 298.15 211.844 301.36 212.476C304.599 213.075 307.751 213.279 310.818 213.088C311.401 213.052 312.105 212.993 312.931 212.911C313.755 212.798 314.529 212.611 315.251 212.351C316.003 212.058 316.625 211.665 317.118 211.172C317.61 210.68 317.83 210.004 317.776 209.146C317.74 208.563 317.526 208.084 317.133 207.708C316.738 207.302 316.242 206.994 315.644 206.785C315.044 206.545 314.372 206.387 313.629 206.31C312.883 206.202 312.156 206.14 311.447 206.122C310.738 206.105 310.076 206.115 309.463 206.153C308.85 206.192 308.359 206.222 307.991 206.245C305.354 206.409 302.921 206.145 300.692 205.452C298.494 204.758 296.566 203.708 294.908 202.303C293.28 200.865 291.969 199.099 290.977 197.006C289.983 194.882 289.404 192.501 289.24 189.864C289.015 186.245 289.534 182.965 290.798 180.024C292.09 177.049 293.886 174.49 296.185 172.346C298.512 170.17 301.222 168.446 304.314 167.177C307.406 165.907 310.638 165.167 314.011 164.957C315.514 164.863 317.067 164.828 318.669 164.852C320.269 164.845 321.86 164.93 323.441 165.109C325.053 165.286 326.624 165.542 328.153 165.878C329.682 166.214 331.142 166.662 332.531 167.222L331.945 186.007C329.816 185.431 327.587 184.985 325.258 184.668C322.958 184.318 320.72 184.211 318.543 184.347C318.144 184.372 317.624 184.419 316.981 184.49C316.368 184.528 315.712 184.615 315.012 184.751C314.341 184.854 313.658 185.005 312.962 185.202C312.266 185.399 311.651 185.653 311.116 185.963C310.579 186.243 310.156 186.608 309.845 187.058C309.534 187.509 309.413 188.024 309.48 188.605C309.552 189.278 309.83 189.784 310.313 190.123C310.826 190.461 311.457 190.698 312.204 190.837C312.981 190.942 313.813 190.967 314.703 190.912C315.623 190.855 316.526 190.783 317.414 190.697C318.299 190.581 319.124 190.483 319.889 190.405C320.652 190.296 321.28 190.241 321.772 190.241C324.235 190.242 326.476 190.626 328.494 191.393C330.512 192.16 332.241 193.238 333.682 194.626C335.153 196.012 336.306 197.711 337.139 199.721C338.001 201.7 338.508 203.915 338.661 206.369Z" fill="#F8F4E3"/>
</svg>
