<svg width="78" height="122" viewBox="0 0 78 122" fill="none" xmlns="http://www.w3.org/2000/svg">
<path d="M41.6258 9.21274C42.3737 25.7964 43.528 42.4378 45.0888 59.1371C46.6618 75.7806 48.5324 92.4473 50.7008 109.137L31.3291 108.913C30.6615 100.474 30.001 92.0547 29.3478 83.6561C28.6801 75.2169 28.0741 66.8154 27.5297 58.4513C26.9975 50.0315 26.5669 41.6261 26.238 33.2352C25.9091 24.8443 25.7629 16.4698 25.7993 8.1117L41.6258 9.21274Z" fill="#2B2D42"/>
<path d="M41.6258 9.21274C42.3737 25.7964 43.528 42.4378 45.0888 59.1371C46.6618 75.7806 48.5324 92.4473 50.7008 109.137L31.3291 108.913C30.6615 100.474 30.001 92.0547 29.3478 83.6561C28.6801 75.2169 28.0741 66.8154 27.5297 58.4513C26.9975 50.0315 26.5669 41.6261 26.238 33.2352C25.9091 24.8443 25.7629 16.4698 25.7993 8.1117L41.6258 9.21274Z" fill="#2B2D42"/>
<path d="M10.7829 75.9081C16.9517 81.9841 23.295 87.9038 29.8128 93.667C36.3154 99.4033 42.9391 105.018 49.6837 110.51L42.2648 118.943C39.0168 115.977 35.7788 113.016 32.5507 110.059C29.3027 107.093 26.0914 104.115 22.9168 101.124C19.7271 98.1063 16.5809 95.0493 13.4784 91.9532C10.3759 88.8571 7.34843 85.687 4.396 82.4429L10.7829 75.9081Z" fill="#2B2D42"/>
<path d="M10.7829 75.9081C16.9517 81.9841 23.295 87.9038 29.8128 93.667C36.3154 99.4033 42.9391 105.018 49.6837 110.51L42.2648 118.943C39.0168 115.977 35.7788 113.016 32.5507 110.059C29.3027 107.093 26.0914 104.115 22.9168 101.124C19.7271 98.1063 16.5809 95.0493 13.4784 91.9532C10.3759 88.8571 7.34843 85.687 4.396 82.4429L10.7829 75.9081Z" fill="#2B2D42"/>
<path d="M76.6515 75.6428C71.5684 81.4499 66.7308 87.3757 62.1385 93.4203C57.5729 99.4489 53.1935 105.558 49.0002 111.748L36.4559 106.945C38.8556 103.92 41.2531 100.903 43.6485 97.8955C46.0482 94.8704 48.4753 91.873 50.93 88.9034C53.4114 85.9179 55.9542 82.962 58.5583 80.0359C61.1624 77.1097 63.88 74.2337 66.7111 71.4079L76.6515 75.6428Z" fill="#2B2D42"/>
<path d="M76.6515 75.6428C71.5684 81.4499 66.7308 87.3757 62.1385 93.4203C57.5729 99.4489 53.1935 105.558 49.0002 111.748L36.4559 106.945C38.8556 103.92 41.2531 100.903 43.6485 97.8955C46.0482 94.8704 48.4753 91.873 50.93 88.9034C53.4114 85.9179 55.9542 82.962 58.5583 80.0359C61.1624 77.1097 63.88 74.2337 66.7111 71.4079L76.6515 75.6428Z" fill="#2B2D42"/>
<path d="M39.3273 10.5345C40.5311 26.8549 42.1075 43.2527 44.0563 59.728C46.0145 76.1491 48.2449 92.608 50.7475 109.105L33.0753 107.899C32.2009 99.5796 31.3336 91.2801 30.4736 83.0008C29.5992 74.681 28.7821 66.4013 28.0225 58.1616C27.2722 49.8676 26.6151 41.5931 26.0511 33.3379C25.487 25.0827 25.0901 16.8529 24.8604 8.64856L39.3273 10.5345Z" fill="#2B2D42"/>
<path d="M39.3273 10.5345C40.5311 26.8549 42.1075 43.2527 44.0563 59.728C46.0145 76.1491 48.2449 92.608 50.7475 109.105L33.0753 107.899C32.2009 99.5796 31.3336 91.2801 30.4736 83.0008C29.5992 74.681 28.7821 66.4013 28.0225 58.1616C27.2722 49.8676 26.6151 41.5931 26.0511 33.3379C25.487 25.0827 25.0901 16.8529 24.8604 8.64856L39.3273 10.5345Z" fill="#2B2D42"/>
</svg>
