<svg id="visual" viewBox="0 0 1800 300" width="1800" height="300" xmlns="http://www.w3.org/2000/svg" xmlns:xlink="http://www.w3.org/1999/xlink" version="1.1"><rect x="0" y="0" width="1800" height="300" fill="#f8f4e3"></rect><path d="M0 217L60 220.3C120 223.7 240 230.3 360 229C480 227.7 600 218.3 720 210.3C840 202.3 960 195.7 1080 201.7C1200 207.7 1320 226.3 1440 230.8C1560 235.3 1680 225.7 1740 220.8L1800 216L1800 301L1740 301C1680 301 1560 301 1440 301C1320 301 1200 301 1080 301C960 301 840 301 720 301C600 301 480 301 360 301C240 301 120 301 60 301L0 301Z" fill="#2b2d42" stroke-linecap="round" stroke-linejoin="miter"></path></svg>