<svg width="99" height="99" viewBox="0 0 99 99" fill="none" xmlns="http://www.w3.org/2000/svg">
<path fill-rule="evenodd" clip-rule="evenodd" d="M59.6323 50.5447C65.5894 57.0821 71.667 63.4823 77.8651 69.7454L69.3615 78.2165C65.0675 74.3246 60.8697 70.3331 56.7682 66.2421C54.446 63.9259 52.1402 61.5912 49.8506 59.2379C42.9073 65.5339 36.118 71.9652 29.4826 78.5318L21.0115 70.0282C24.9035 65.7341 28.8949 61.5364 32.986 57.4348C35.5653 54.8489 38.1677 52.2831 40.793 49.7375C38.1118 46.8772 35.4379 43.9946 32.7715 41.0896C28.8518 36.8319 24.9258 32.5612 20.9938 28.2773L31.9764 18.4342C38.0733 25.8754 44.2811 33.2044 50.5999 40.4212C53.0958 38.0879 55.6086 35.7602 58.1384 33.4381C62.3961 29.5184 66.6669 25.5925 70.9507 21.6604L80.7938 32.6431C73.6362 38.5076 66.5823 44.4748 59.6323 50.5447Z" fill="#2B2D42"/>
</svg>
