<svg id="visual" viewBox="0 0 1800 300" width="1800" height="300" xmlns="http://www.w3.org/2000/svg" xmlns:xlink="http://www.w3.org/1999/xlink" version="1.1"><rect x="0" y="0" width="1800" height="300" fill="#f87d58"></rect><path d="M0 138L42.8 134.8C85.7 131.7 171.3 125.3 257 130.8C342.7 136.3 428.3 153.7 514 161.3C599.7 169 685.3 167 771.2 156.2C857 145.3 943 125.7 1028.8 123.2C1114.7 120.7 1200.3 135.3 1286 147.2C1371.7 159 1457.3 168 1543 173.5C1628.7 179 1714.3 181 1757.2 182L1800 183L1800 301L1757.2 301C1714.3 301 1628.7 301 1543 301C1457.3 301 1371.7 301 1286 301C1200.3 301 1114.7 301 1028.8 301C943 301 857 301 771.2 301C685.3 301 599.7 301 514 301C428.3 301 342.7 301 257 301C171.3 301 85.7 301 42.8 301L0 301Z" fill="#f8f4e3" stroke-linecap="round" stroke-linejoin="miter"></path></svg>