<svg id="visual" viewBox="0 0 800 50" width="800" height="50" xmlns="http://www.w3.org/2000/svg" xmlns:xlink="http://www.w3.org/1999/xlink" version="1.1"><rect x="0" y="0" width="800" height="50" fill="#f87d58"></rect><path d="M0 31L14.8 31.7C29.7 32.3 59.3 33.7 89 33.7C118.7 33.7 148.3 32.3 178 31.5C207.7 30.7 237.3 30.3 267 30C296.7 29.7 326.3 29.3 355.8 29.8C385.3 30.3 414.7 31.7 444.2 33.3C473.7 35 503.3 37 533 37.2C562.7 37.3 592.3 35.7 622 33C651.7 30.3 681.3 26.7 711 25C740.7 23.3 770.3 23.7 785.2 23.8L800 24L800 51L785.2 51C770.3 51 740.7 51 711 51C681.3 51 651.7 51 622 51C592.3 51 562.7 51 533 51C503.3 51 473.7 51 444.2 51C414.7 51 385.3 51 355.8 51C326.3 51 296.7 51 267 51C237.3 51 207.7 51 178 51C148.3 51 118.7 51 89 51C59.3 51 29.7 51 14.8 51L0 51Z" fill="#f8f4e3" stroke-linecap="round" stroke-linejoin="miter"></path></svg>