<svg id="visual" viewBox="0 0 800 50" width="800" height="50" xmlns="http://www.w3.org/2000/svg" xmlns:xlink="http://www.w3.org/1999/xlink" version="1.1"><rect x="0" y="0" width="800" height="50" fill="#f8f4e3"></rect><path d="M0 30L14.8 28.5C29.7 27 59.3 24 89 23.5C118.7 23 148.3 25 178 27.3C207.7 29.7 237.3 32.3 267 33.5C296.7 34.7 326.3 34.3 355.8 31.2C385.3 28 414.7 22 444.2 21C473.7 20 503.3 24 533 25.8C562.7 27.7 592.3 27.3 622 26C651.7 24.7 681.3 22.3 711 20.7C740.7 19 770.3 18 785.2 17.5L800 17L800 51L785.2 51C770.3 51 740.7 51 711 51C681.3 51 651.7 51 622 51C592.3 51 562.7 51 533 51C503.3 51 473.7 51 444.2 51C414.7 51 385.3 51 355.8 51C326.3 51 296.7 51 267 51C237.3 51 207.7 51 178 51C148.3 51 118.7 51 89 51C59.3 51 29.7 51 14.8 51L0 51Z" fill="#2b2d42" stroke-linecap="round" stroke-linejoin="miter"></path></svg>