<svg width="102" height="102" viewBox="0 0 102 102" fill="none" xmlns="http://www.w3.org/2000/svg">
<g clip-path="url(#clip0_1_2)">
<circle cx="51" cy="51" r="48" stroke="#F8F4E3" stroke-width="6"/>
<path d="M25.3942 35.1136H20.8632C18.3026 35.1136 16.2268 37.1894 16.2268 39.75V41.2665C16.2268 43.5167 18.051 45.3409 20.3012 45.3409V45.3409M25.3942 35.1136L44.7475 11.5909M25.3942 35.1136H75.3053M75.3053 35.1136H78.8177C81.3783 35.1136 83.4541 37.1894 83.4541 39.75V41.2665C83.4541 43.5167 81.6299 45.3409 79.3797 45.3409V45.3409M75.3053 35.1136L51.8777 21.8181M20.3012 45.3409L26.6883 77.4057C27.1203 79.5745 29.0239 81.1363 31.2353 81.1363H69.3563C71.6158 81.1363 73.5462 79.5075 73.9265 77.2803L79.3797 45.3409M20.3012 45.3409H79.3797M34.5615 54.5454L37.6173 70.909M49.8405 54.5454V70.909M65.1194 54.5454L62.0636 70.909" stroke="#F8F4E3" stroke-width="6" stroke-linecap="round"/>
</g>
<defs>
<clipPath id="clip0_1_2">
<rect width="102" height="102" fill="white"/>
</clipPath>
</defs>
</svg>
