<svg width="186" height="191" viewBox="0 0 186 191" fill="none" xmlns="http://www.w3.org/2000/svg">
<g clip-path="url(#clip0_7_257)">
<path d="M15.5 72.5V65H9.32644L8.13984 71.0585L15.5 72.5ZM172.5 63.5L179.927 62.4541L178.904 55.1919L171.621 56.0517L172.5 63.5ZM176.522 92.0616V99.5616H185.152L183.949 91.0157L176.522 92.0616ZM11.6687 92.0616L4.30854 90.62L2.55727 99.5616H11.6687V92.0616ZM47.5 72.5V80H47.7165L47.9326 79.9875L47.5 72.5ZM88.2067 12.8624L91.7686 6.26216L78.5682 -0.861641L75.0063 5.73858L88.2067 12.8624ZM143 66.9825L143.433 74.47L143.657 74.457L143.879 74.4307L143 66.9825ZM103.562 28.358L97.5405 23.8869L88.5983 35.9301L94.6199 40.4012L103.562 28.358ZM39.1443 179.839L31.7888 181.304L32.9909 187.339H39.1443V179.839ZM151.544 179.839V187.339H157.872L158.937 181.101L151.544 179.839ZM64.0013 113.256C63.2409 109.184 59.3237 106.5 55.252 107.26C51.1802 108.021 48.4958 111.938 49.2562 116.01L64.0013 113.256ZM56.7495 156.136C57.5099 160.208 61.4271 162.892 65.4988 162.132C69.5706 161.372 72.255 157.454 71.4946 153.383L56.7495 156.136ZM101.595 114.633C101.595 110.491 98.2375 107.133 94.0954 107.133C89.9533 107.133 86.5954 110.491 86.5954 114.633H101.595ZM86.5954 154.759C86.5954 158.902 89.9533 162.259 94.0954 162.259C98.2375 162.259 101.595 158.902 101.595 154.759H86.5954ZM138.935 116.01C139.695 111.938 137.011 108.021 132.939 107.26C128.867 106.5 124.95 109.184 124.19 113.256L138.935 116.01ZM116.696 153.383C115.936 157.454 118.62 161.372 122.692 162.132C126.764 162.892 130.681 160.208 131.441 156.136L116.696 153.383ZM165.073 64.5459L169.095 93.1074L183.949 91.0157L179.927 62.4541L165.073 64.5459ZM19.0289 93.5031L22.8602 73.9415L8.13984 71.0585L4.30854 90.62L19.0289 93.5031ZM15.5 80H47.5V65H15.5V80ZM54.1002 76.0619L88.2067 12.8624L75.0063 5.73858L40.8998 68.9381L54.1002 76.0619ZM47.9326 79.9875L143.433 74.47L142.567 59.4949L47.0674 65.0125L47.9326 79.9875ZM143.879 74.4307L173.379 70.9483L171.621 56.0517L142.121 59.5342L143.879 74.4307ZM147.471 60.9609L103.562 28.358L94.6199 40.4012L138.529 73.004L147.471 60.9609ZM21.6598 84.5616H11.6687V99.5616H21.6598V84.5616ZM14.3043 93.5267L31.7888 181.304L46.4998 178.373L29.0153 90.5964L14.3043 93.5267ZM39.1443 187.339H151.544V172.339H39.1443V187.339ZM176.522 84.5616H166.531V99.5616H176.522V84.5616ZM166.531 84.5616H21.6598V99.5616H166.531V84.5616ZM158.937 181.101L173.924 93.3238L159.138 90.7993L144.151 178.576L158.937 181.101ZM49.2562 116.01L56.7495 156.136L71.4946 153.383L64.0013 113.256L49.2562 116.01ZM86.5954 114.633V154.759H101.595V114.633H86.5954ZM124.19 113.256L116.696 153.383L131.441 156.136L138.935 116.01L124.19 113.256Z" fill="#F8F4E3"/>
</g>
<defs>
<clipPath id="clip0_7_257">
<rect width="186" height="191" fill="white"/>
</clipPath>
</defs>
</svg>
