<svg width="256" height="182" viewBox="0 0 256 182" fill="none" xmlns="http://www.w3.org/2000/svg">
<g clip-path="url(#clip0_0_1)">
<path d="M211.017 89.2546C211.017 66.8731 202.391 45.3526 186.933 29.1669C171.475 12.9812 150.374 3.3755 128.016 2.34672C105.658 1.31794 83.7637 8.94522 66.8846 23.643C50.0054 38.3407 39.4399 58.9781 37.3845 81.265C35.3292 103.552 41.942 125.774 55.8483 143.31C69.7547 160.847 89.8846 172.35 112.053 175.428C134.222 178.506 156.724 172.921 174.882 159.836C193.04 146.75 205.456 127.17 209.549 105.166L124.017 89.2546H211.017Z" fill="#DD6F4F"/>
<path d="M52.6848 75.7264L35.5462 79.0306L32.9665 71.2883L25.0245 71.7824L23.7726 79.7631L5.89934 79.1266L16.8763 31.8664L36.1829 29.6861L52.6848 75.7264ZM31.0493 60.7074L27.6479 48.7502L25.8244 61.0325L31.0493 60.7074ZM95.734 58.3616C95.8973 60.9857 96.0243 63.5887 96.115 66.1707C96.2274 68.728 96.3065 71.3107 96.3522 73.9188L76.2667 74.8188C76.7076 70.6651 77.0564 66.5288 77.313 62.41C77.5682 58.2679 77.5657 54.1068 77.3057 49.9269C77.2869 49.625 77.2449 49.138 77.1798 48.466C77.1147 47.794 77.0213 47.0422 76.8996 46.2105C76.7765 45.3557 76.6178 44.4913 76.4236 43.6176C76.2511 42.7191 76.0257 41.9056 75.7472 41.1769C75.492 40.4468 75.1874 39.8596 74.8334 39.4154C74.5012 38.9465 74.1144 38.7258 73.6732 38.7533C72.8837 38.8024 72.2247 39.0765 71.6962 39.5756C71.191 40.0733 70.7757 40.7053 70.4504 41.4715C70.1469 42.213 69.9188 43.0431 69.7661 43.9618C69.6135 44.8805 69.5073 45.7962 69.4475 46.7091C69.411 47.6206 69.3947 48.4841 69.3989 49.2998C69.4248 50.0908 69.4536 50.7417 69.4854 51.2526C69.625 55.3702 69.7864 59.463 69.9695 63.5312C70.1513 67.5762 70.3126 71.6691 70.4537 75.8098L52.7365 77.6814C52.6909 69.4551 52.625 61.2767 52.5388 53.1462C52.4758 45.0142 52.3171 36.8416 52.0625 28.6283L68.4517 26.7694L68.6592 32.3514C69.2602 31.5214 69.9107 30.7349 70.6104 29.992C71.3334 29.2477 72.1094 28.605 72.9382 28.0638C73.7657 27.4995 74.6468 27.0484 75.5815 26.7105C76.5381 26.3479 77.5505 26.1334 78.6187 26.0669C80.5926 25.9441 82.3428 26.1616 83.8695 26.7194C85.3962 27.2771 86.7283 28.0801 87.8659 29.1283C89.0034 30.1765 89.9798 31.4445 90.7951 32.9324C91.6089 34.3971 92.2898 35.9749 92.8379 37.6659C93.3861 39.3569 93.8348 41.1356 94.184 43.0022C94.5318 44.8455 94.7969 46.6706 94.9792 48.4776C95.1848 50.2832 95.3403 52.0336 95.4458 53.7288C95.5513 55.424 95.6474 56.9683 95.734 58.3616ZM137.885 45.6684C138.087 48.9195 137.851 51.8599 137.175 54.4896C136.499 57.1192 135.469 59.4796 134.084 61.5706C132.72 63.6369 131.049 65.431 129.069 66.953C127.088 68.4749 124.896 69.7652 122.491 70.824C120.084 71.8596 117.5 72.6731 114.74 73.2644C112.002 73.8544 109.171 74.2403 106.245 74.4224C105.153 74.4903 104.083 74.5335 103.036 74.5521C101.986 74.5474 100.912 74.521 99.8136 74.4728L97.9673 29.0593C100.471 28.0876 103.06 27.3555 105.733 26.8628C108.429 26.3454 111.112 26.0036 113.782 25.8375C117.103 25.6309 120.186 25.9054 123.03 26.6609C125.874 27.4164 128.363 28.637 130.496 30.3226C132.628 31.985 134.333 34.1052 135.613 36.6832C136.914 39.2365 137.671 42.2316 137.885 45.6684ZM115.031 60.518C116.411 60.2223 117.651 59.7256 118.749 59.0278C119.87 58.3053 120.82 57.4537 121.598 56.4728C122.374 55.4686 122.947 54.3607 123.314 53.1489C123.704 51.9125 123.856 50.6208 123.772 49.2739C123.69 47.9503 123.474 46.7282 123.125 45.6076C122.774 44.4638 122.259 43.4935 121.58 42.6965C120.899 41.8763 120.033 41.2541 118.981 40.83C117.927 40.3827 116.656 40.1821 115.167 40.2281L115.031 60.518ZM180.536 37.0704C180.648 38.8817 180.588 40.5406 180.356 42.0471C180.145 43.5288 179.741 44.9061 179.144 46.1787C178.547 47.4514 177.747 48.6435 176.744 49.7549C175.741 50.8664 174.514 51.9451 173.064 52.9911L182.273 67.2446L166.789 71.2851L160.501 56.7799L156.191 57.188L156.465 71.7176L141.487 72.6494C141.274 67.3476 141.05 62.0697 140.816 56.8157C140.606 51.5603 140.406 46.2809 140.216 40.9776C140.096 38.3042 139.978 35.6539 139.861 33.027C139.744 30.4 139.672 27.7469 139.646 25.0677C141.234 24.3628 142.805 23.7638 144.359 23.2708C145.914 22.7778 147.474 22.3776 149.04 22.0704C150.628 21.7385 152.233 21.4871 153.854 21.3163C155.497 21.1209 157.178 20.9697 158.896 20.8628C161.543 20.6981 164.121 20.9107 166.629 21.5007C169.158 22.066 171.421 23.0209 173.416 24.3654C175.411 25.7099 177.046 27.4382 178.319 29.5503C179.616 31.661 180.355 34.1677 180.536 37.0704ZM165 39.1559C164.939 38.1806 164.744 37.2952 164.415 36.4998C164.109 35.7029 163.671 35.0308 163.1 34.4835C162.552 33.9115 161.873 33.4875 161.063 33.2115C160.275 32.9109 159.359 32.793 158.314 32.8581C157.849 32.8869 157.398 32.95 156.962 33.0471C156.523 33.121 156.099 33.229 155.688 33.3711L155.937 46.3637L156.773 46.3117C157.771 46.2496 158.774 46.059 159.779 45.74C160.809 45.4195 161.713 44.967 162.492 44.3823C163.295 43.7962 163.926 43.0692 164.385 42.2014C164.867 41.3322 165.072 40.317 165 39.1559ZM228.801 64.7695L211.663 68.0737L209.083 60.3315L201.141 60.8256L199.889 68.8062L182.016 68.1698L192.993 20.9095L212.299 18.7293L228.801 64.7695ZM207.166 49.7505L203.764 37.7933L201.941 50.0756L207.166 49.7505ZM34.239 131.087L33.7382 146.644L4.5517 150.767C4.18682 142.654 3.83644 134.587 3.50056 126.565C3.18791 118.542 2.90719 110.47 2.65842 102.35L20.7717 101.223C20.554 106.342 20.3595 111.459 20.1882 116.575C20.0155 121.668 19.985 126.798 20.0967 131.967C21.1911 131.945 22.2723 131.901 23.3405 131.835C24.4088 131.768 25.4886 131.701 26.58 131.633C27.8805 131.552 29.157 131.461 30.4095 131.36C31.6621 131.259 32.9386 131.168 34.239 131.087ZM80.8496 145.111L63.7111 148.416L61.1313 140.673L53.1894 141.167L51.9375 149.148L34.0642 148.512L45.0412 101.251L64.3478 99.0712L80.8496 145.111ZM59.2142 130.092L55.8127 118.135L53.9892 130.417L59.2142 130.092ZM123.899 127.747C124.062 130.371 124.189 132.974 124.28 135.556C124.392 138.113 124.471 140.696 124.517 143.304L104.432 144.204C104.872 140.05 105.221 135.914 105.478 131.795C105.733 127.653 105.731 123.492 105.471 119.312C105.452 119.01 105.41 118.523 105.345 117.851C105.28 117.179 105.186 116.427 105.064 115.596C104.941 114.741 104.783 113.876 104.588 113.003C104.416 112.104 104.191 111.291 103.912 110.562C103.657 109.832 103.352 109.245 102.998 108.8C102.666 108.332 102.279 108.111 101.838 108.138C101.049 108.187 100.39 108.462 99.8611 108.961C99.3559 109.458 98.9406 110.09 98.6153 110.857C98.3117 111.598 98.0836 112.428 97.931 113.347C97.7783 114.266 97.6721 115.181 97.6124 116.094C97.5758 117.006 97.5596 117.869 97.5637 118.685C97.5896 119.476 97.6185 120.127 97.6502 120.638C97.7898 124.755 97.9512 128.848 98.1344 132.916C98.3161 136.961 98.4775 141.054 98.6186 145.195L80.9013 147.066C80.8558 138.84 80.7899 130.662 80.7037 122.531C80.6407 114.399 80.4819 106.227 80.2274 98.0133L96.6166 96.1544L96.824 101.736C97.4251 100.906 98.0755 100.12 98.7753 99.3771C99.4983 98.6327 100.274 97.99 101.103 97.4489C101.931 96.8845 102.812 96.4334 103.746 96.0955C104.703 95.7329 105.715 95.5184 106.784 95.452C108.757 95.3292 110.508 95.5466 112.034 96.1044C113.561 96.6622 114.893 97.4651 116.031 98.5133C117.168 99.5615 118.145 100.83 118.96 102.317C119.774 103.782 120.455 105.36 121.003 107.051C121.551 108.742 122 110.521 122.349 112.387C122.697 114.231 122.962 116.056 123.144 117.863C123.35 119.668 123.505 121.419 123.611 123.114C123.716 124.809 123.812 126.353 123.899 127.747ZM169.932 134.744C168.926 136.182 167.654 137.461 166.115 138.583C164.576 139.704 162.911 140.659 161.118 141.446C159.325 142.234 157.476 142.862 155.57 143.33C153.663 143.775 151.839 144.052 150.097 144.16C146.73 144.37 143.594 143.994 140.69 143.032C137.786 142.07 135.238 140.644 133.046 138.752C130.875 136.836 129.122 134.509 127.786 131.771C126.45 129.033 125.679 126.004 125.472 122.683C125.315 120.152 125.452 117.672 125.884 115.244C126.315 112.816 127 110.524 127.938 108.368C128.9 106.21 130.104 104.212 131.552 102.373C132.999 100.535 134.671 98.9272 136.567 97.5504C138.463 96.1736 140.563 95.0755 142.866 94.2562C145.191 93.4121 147.678 92.9078 150.325 92.7431C151.324 92.681 152.395 92.6609 153.538 92.683C154.681 92.6819 155.815 92.7512 156.943 92.8908C158.093 93.0058 159.212 93.2042 160.302 93.4861C161.392 93.768 162.394 94.1369 163.308 94.5929L163.161 107.96C161.83 107.553 160.463 107.312 159.059 107.236C157.678 107.135 156.325 107.126 155.001 107.209C153.144 107.324 151.418 107.688 149.824 108.3C148.252 108.887 146.893 109.706 145.746 110.757C144.622 111.806 143.758 113.083 143.152 114.59C142.546 116.096 142.303 117.813 142.423 119.74C142.498 120.948 142.734 122.111 143.13 123.228C143.524 124.323 144.074 125.291 144.779 126.133C145.506 126.95 146.374 127.596 147.382 128.069C148.414 128.541 149.58 128.736 150.881 128.656C151.763 128.601 152.662 128.428 153.576 128.138C154.514 127.847 155.302 127.401 155.941 126.802L155.911 124.077L147.542 124.457L147.31 113.981C150.763 113.65 154.217 113.342 157.673 113.057C161.128 112.749 164.604 112.416 168.101 112.058L169.932 134.744ZM214.624 115.109C214.755 117.222 214.639 119.281 214.274 121.285C213.907 123.266 213.313 125.144 212.491 126.921C211.693 128.695 210.676 130.344 209.442 131.866C208.23 133.363 206.831 134.674 205.246 135.799C203.684 136.922 201.957 137.833 200.066 138.534C198.173 139.211 196.147 139.617 193.987 139.751C191.897 139.881 189.884 139.738 187.946 139.323C186.032 138.906 184.221 138.272 182.513 137.423C180.803 136.55 179.233 135.482 177.803 134.219C176.394 132.931 175.162 131.493 174.107 129.903C173.074 128.289 172.232 126.546 171.579 124.675C170.95 122.803 170.571 120.833 170.442 118.767C170.316 116.746 170.437 114.757 170.805 112.799C171.172 110.818 171.754 108.941 172.553 107.166C173.375 105.39 174.391 103.741 175.602 102.22C176.813 100.7 178.187 99.367 179.724 98.2223C181.285 97.0762 182.988 96.1544 184.832 95.4568C186.677 94.7592 188.645 94.3454 190.735 94.2154C194.102 94.0059 197.2 94.3377 200.028 95.2108C202.88 96.0824 205.342 97.4329 207.414 99.2622C209.507 101.067 211.174 103.318 212.415 106.015C213.677 108.687 214.413 111.718 214.624 115.109ZM199.214 116.977C199.152 115.978 198.941 115.024 198.582 114.114C198.244 113.179 197.774 112.369 197.172 111.684C196.568 110.975 195.835 110.426 194.971 110.037C194.129 109.623 193.174 109.45 192.106 109.516C191.015 109.584 190.052 109.842 189.217 110.29C188.382 110.738 187.673 111.33 187.09 112.066C186.528 112.777 186.113 113.607 185.846 114.556C185.577 115.482 185.474 116.456 185.538 117.478C185.599 118.453 185.799 119.42 186.138 120.378C186.477 121.336 186.95 122.192 187.557 122.947C188.163 123.702 188.888 124.298 189.731 124.735C190.597 125.171 191.576 125.354 192.668 125.287C193.759 125.219 194.722 124.949 195.555 124.478C196.41 123.981 197.117 123.355 197.676 122.597C198.233 121.817 198.645 120.94 198.911 119.968C199.177 118.995 199.278 117.998 199.214 116.977ZM253.187 119.493C253.385 122.675 252.998 125.461 252.028 127.853C251.08 130.22 249.689 132.218 247.855 133.847C246.044 135.452 243.871 136.694 241.338 137.575C238.827 138.43 236.097 138.95 233.148 139.133C232.01 139.204 230.747 139.131 229.358 138.914C227.992 138.696 226.599 138.41 225.178 138.055C223.756 137.678 222.379 137.274 221.046 136.844C219.736 136.389 218.567 135.961 217.54 135.558L218.223 121.808C220.27 122.87 222.51 123.64 224.94 124.118C227.393 124.572 229.781 124.726 232.103 124.582C232.544 124.554 233.077 124.509 233.703 124.447C234.327 124.362 234.913 124.22 235.46 124.023C236.029 123.801 236.5 123.504 236.873 123.131C237.246 122.758 237.412 122.246 237.372 121.596C237.345 121.155 237.182 120.792 236.885 120.508C236.586 120.2 236.21 119.967 235.757 119.808C235.303 119.627 234.794 119.507 234.231 119.449C233.667 119.367 233.116 119.32 232.579 119.307C232.042 119.294 231.541 119.301 231.077 119.33C230.612 119.359 230.241 119.382 229.962 119.4C227.965 119.524 226.122 119.324 224.435 118.799C222.77 118.273 221.31 117.478 220.055 116.414C218.822 115.325 217.829 113.988 217.078 112.403C216.325 110.795 215.887 108.992 215.763 106.995C215.592 104.255 215.985 101.771 216.942 99.5435C217.921 97.2913 219.281 95.3534 221.022 93.7298C222.784 92.0816 224.836 90.7767 227.177 89.8151C229.519 88.8535 231.966 88.2933 234.521 88.1344C235.659 88.0636 236.834 88.037 238.048 88.0548C239.26 88.0494 240.464 88.1143 241.662 88.2496C242.882 88.3835 244.071 88.5776 245.23 88.8319C246.388 89.0862 247.493 89.4254 248.545 89.8495L248.101 104.074C246.489 103.638 244.801 103.3 243.038 103.06C241.296 102.796 239.601 102.715 237.952 102.817C237.65 102.836 237.256 102.872 236.77 102.926C236.306 102.955 235.808 103.021 235.279 103.123C234.771 103.202 234.253 103.315 233.726 103.465C233.199 103.614 232.733 103.806 232.328 104.041C231.922 104.253 231.601 104.529 231.366 104.87C231.131 105.211 231.039 105.602 231.089 106.042C231.144 106.551 231.355 106.934 231.72 107.191C232.109 107.447 232.587 107.627 233.153 107.732C233.74 107.812 234.371 107.831 235.044 107.789C235.741 107.745 236.425 107.691 237.097 107.626C237.768 107.538 238.393 107.464 238.972 107.405C239.549 107.322 240.025 107.281 240.398 107.281C242.263 107.281 243.959 107.572 245.487 108.153C247.016 108.734 248.325 109.55 249.416 110.601C250.531 111.651 251.403 112.937 252.034 114.46C252.687 115.958 253.071 117.636 253.187 119.493Z" fill="#F8F4E3"/>
</g>
<defs>
<clipPath id="clip0_0_1">
<rect width="256" height="182" fill="white"/>
</clipPath>
</defs>
</svg>
