<svg width="65" height="61" viewBox="0 0 65 61" fill="none" xmlns="http://www.w3.org/2000/svg">
<path fill-rule="evenodd" clip-rule="evenodd" d="M38.6364 36.1448C38.2123 44.3694 37.9778 52.5824 37.933 60.7837L26.95 60.7637C26.6899 55.712 26.5564 50.6583 26.5496 45.6026C26.5451 42.2268 26.5719 38.849 26.63 35.4693C18.0573 35.0693 9.49668 34.848 0.948181 34.8055L0.969155 24.3302C6.2657 24.0821 11.5643 23.9548 16.8651 23.9483C20.2234 23.9442 23.5836 23.967 26.9456 24.0167C27.049 21.1085 27.1662 18.1936 27.2974 15.2721C27.5161 10.2258 27.7392 5.16751 27.9668 0.0973511L41.4415 0.80055C40.6251 8.64174 39.936 16.4822 39.374 24.3221C42.464 24.4216 45.5613 24.5348 48.6656 24.6615C53.9566 24.8701 59.26 25.0829 64.5759 25.3L63.8386 38.1518C55.4371 37.3561 47.0364 36.6871 38.6364 36.1448Z" fill="#2B2D42"/>
</svg>
