<svg width="673" height="458" viewBox="0 0 673 458" fill="none" xmlns="http://www.w3.org/2000/svg">
<ellipse cx="337.498" cy="229.113" rx="333.498" ry="189.887" fill="#E2DECB"/>
<path d="M670.497 218.397C670.497 270.575 633.347 317.912 573.07 352.232C512.807 386.545 429.521 407.783 337.498 407.783C245.476 407.783 162.19 386.545 101.927 352.232C41.6493 317.912 4.5 270.575 4.5 218.397C4.5 166.219 41.6493 118.882 101.927 84.5612C162.19 50.2488 245.476 29.0102 337.498 29.0102C429.521 29.0102 512.807 50.2488 573.07 84.5612C633.347 118.882 670.497 166.219 670.497 218.397Z" fill="#F8F4E3" stroke="#F8F4E3"/>
<path d="M83.816 90.1301C85.2449 57.9806 104.058 50.5386 113.286 50.8363H145.436C168.655 50.8363 199.912 50.8363 227.596 40.1198C255.28 29.4033 324.937 26.7241 382.985 28.5102C441.033 30.2963 449.07 44.585 502.653 60.6597C556.235 76.7345 550.877 79.4136 586.599 108.884C622.321 138.354 604.46 138.354 615.176 158.894C625.893 179.434 616.962 199.974 595.529 251.771C574.096 303.567 539.268 318.749 502.653 341.075C466.038 363.401 442.819 355.364 414.242 373.225C385.664 391.085 271.355 377.69 227.596 366.08C183.837 354.471 113.286 300.888 83.816 251.771C54.3456 202.653 51.6665 174.076 59.7039 138.354C67.7412 102.633 82.0299 130.317 83.816 90.1301Z" fill="#F0CE92"/>
<path d="M83.84 86.2043C85.2701 56.3502 104.1 49.4396 113.336 49.716H145.513C168.752 49.716 200.035 49.716 227.743 39.7646C255.451 29.8133 325.168 27.3254 383.265 28.984C441.362 30.6426 449.407 43.911 503.035 58.8381C556.663 73.7651 551.3 76.253 587.053 103.619C622.805 130.985 604.929 130.985 615.654 150.059C626.38 169.132 617.442 188.206 595.991 236.304C574.539 284.402 539.681 298.5 503.035 319.232C466.389 339.964 443.15 332.5 414.548 349.086C385.946 365.672 271.539 353.232 227.743 342.452C183.946 331.671 113.336 281.914 83.84 236.304C54.3444 190.694 51.6629 164.157 59.7072 130.985C67.7515 97.8142 82.0523 123.522 83.84 86.2043Z" fill="#FFDC9D" stroke="#FFDC9D"/>
<path d="M125.003 100.838C137.151 78.7898 168.177 59.3583 182.172 52.3986C295.795 23.0009 476.65 57.4096 552.875 78.2887C558.533 83.5781 571.455 99.6689 577.887 121.717C585.926 149.278 551.982 149.278 552.875 176.003C553.768 202.728 555.555 226.113 541.263 242.816C526.971 259.519 458.19 274.552 411.74 274.552C365.29 274.552 395.661 246.992 354.571 274.552C313.481 302.113 241.127 278.728 182.172 267.871C123.217 257.014 114.284 199.387 125.003 170.157C135.722 140.926 109.818 128.399 125.003 100.838Z" fill="#FCFCFA" stroke="#FCFCFA"/>
<path d="M198.315 129.581C225.478 134.571 170.319 84.1343 139.345 58.292C112.776 35.123 273.369 68.0943 347.529 40.4697C421.689 12.8451 354.677 98.3922 383.269 107.303C411.86 116.215 479.766 68.9854 526.227 75.2232C572.689 81.461 423.476 150.968 495.849 177.701C568.222 204.435 544.991 161.661 572.689 197.306C600.387 232.951 484.233 209.782 518.186 243.644C552.139 277.506 468.15 228.495 423.476 197.306C378.801 166.117 412.754 240.08 459.215 304.24C505.677 368.4 343.061 227.604 300.174 228.495C257.286 229.386 247.458 330.082 235.842 304.24C224.227 278.398 267.114 220.475 273.369 192.85C279.623 165.226 167.043 221.366 121.475 256.12C75.9068 290.873 125.049 207.999 228.694 177.701C332.339 147.404 173.298 155.424 113.434 161.661C53.5695 167.899 164.363 123.343 198.315 129.581Z" fill="#F8F4E3"/>
</svg>
