<svg width="446" height="536" viewBox="0 0 446 536" fill="none" xmlns="http://www.w3.org/2000/svg">
<g clip-path="url(#clip0_12_559)">
<path d="M292.486 29.9519C308.151 16.3224 299.378 11.7828 293.034 11.2167C282.03 7.41128 268.216 28.8843 261.993 46.8779C255.771 64.8715 272.906 46.9889 292.486 29.9519Z" fill="#FBFBFB"/>
<path d="M203.959 532.314C343.223 533.529 314.462 487.4 308.15 401.846C304.022 345.9 311.416 257.995 317.466 204.259C318.443 195.585 319.384 187.801 320.237 181.185C320.553 178.796 314.922 178.671 294.904 158.358C269.88 132.968 66.3431 203.058 69.7189 213.869C73.0947 224.681 77.7211 474.931 72.5393 491.992C67.3575 509.052 64.6946 531.099 203.959 532.314Z" fill="#E4E4E4"/>
<path d="M199.525 524.288C334.838 525.046 307.043 479.088 301.189 393.698C297.361 337.858 304.833 250.075 310.888 196.409C311.865 187.746 312.805 179.972 313.655 173.365C313.97 170.978 308.5 170.872 289.115 150.659C264.884 125.392 66.8866 196.031 70.1314 206.814C73.3762 217.596 79.4193 468.739 74.3286 485.788C69.2379 502.837 64.2123 523.53 199.525 524.288Z" fill="#EBEBEB"/>
<path d="M300.618 468.505C291.305 381.621 303.96 220.742 312.722 174.096C265.335 145.218 140.479 147.217 83.9748 151.827C85.8108 257.462 90.781 470.067 95.9736 475.411C164.505 494.945 299.597 476.958 300.618 468.505Z" fill="#E17E1A"/>
<path d="M272.388 443.824C279.566 444.691 285.895 239.886 293.343 200.208C253.118 175.653 147.114 177.378 99.1406 181.31C100.679 271.162 99.3596 394.834 120.729 450.475C130.367 475.568 262.619 451.487 272.388 443.824Z" fill="#EF902F"/>
<path d="M416.305 316.074C428.907 401.242 354.23 453.882 312.917 470.047L309.561 433.228C315.336 435.66 327.914 438.046 339.484 435.282C377.073 416.934 403.086 356.612 381.788 287.456C364.75 232.13 327.592 235.133 311.143 243.55L315.726 205.609C350.838 207.77 400.554 209.613 416.305 316.074Z" fill="#E4E4E4"/>
<path d="M408.496 317C419.561 402.088 342.4 456.589 303.705 473.096L300.562 425.899C305.933 428.284 326.502 435.088 338.644 433.62C353.709 431.798 395.824 357.658 376.511 288.658C361.061 233.457 320.617 236.878 305.194 245.432L309.776 207.492C342.533 209.365 394.665 210.64 408.496 317Z" fill="#EBEBEB"/>
<path d="M296.472 119.533C282.143 108.959 288.296 109.703 259.824 87.0166C244.426 80.9952 239.829 84.6014 216.11 95.7817C192.391 106.962 177.451 118.682 122.98 113.143C68.5086 107.605 62.3187 128.705 56.8546 139.489C51.3905 150.273 56.7195 261.197 73.2227 270.993C89.7259 280.79 77.6541 242.918 84.2502 227.069L84.4111 226.682C90.9784 210.899 99.0756 191.44 112.824 197.228C126.684 203.064 135.343 251.967 149.946 251.65C164.55 251.333 156.315 211.844 159.463 198.7C162.611 185.555 172.023 215.302 177.123 224.761C182.222 234.221 190.449 179.034 197.936 177.337C205.424 175.641 210.434 194.452 220.52 201.393C230.606 208.333 241.809 175.874 249.668 171.101C257.527 166.328 277.203 184.31 314.782 178.966C352.361 173.621 340.678 136.837 333.917 128.218C327.155 119.598 310.8 130.107 296.472 119.533Z" fill="#E1DDDD"/>
<path d="M296.501 116.563C282.094 106.86 288.236 107.602 259.588 86.8114C244.166 81.2016 239.625 84.4003 216.11 94.2065C192.594 104.013 177.836 114.408 123.468 108.778C69.0997 103.148 63.1748 122.105 57.8532 131.767C52.5316 141.429 59.1371 241.525 75.7038 250.552C92.2706 259.579 79.7944 225.285 86.1855 211.068L86.3413 210.721C92.7045 196.564 100.55 179.109 114.323 184.49C128.209 189.914 137.411 234.117 151.966 234.002C166.521 233.886 157.851 198.178 160.836 186.361C163.822 174.543 173.551 201.48 178.746 210.07C183.94 218.66 191.498 168.987 198.943 167.544C206.387 166.101 211.602 183.125 221.737 189.501C231.873 195.878 242.664 166.736 250.443 162.523C258.222 158.31 278.047 174.757 315.449 170.375C352.85 165.993 340.774 132.684 333.933 124.831C327.091 116.979 310.909 126.266 296.501 116.563Z" fill="#FBFBFB"/>
<path d="M267.35 433.852C276.651 415.416 280.329 289.073 281.743 228.555C280.245 213.392 281.798 210.875 274.806 208.47C264.427 208.257 255.723 456.897 267.35 433.852Z" fill="#F2F2F2"/>
<path d="M144.036 494.385C176.236 486.206 215.67 488.472 235.945 491.441C249.079 492.962 263.914 496.758 273.717 501.726C289.894 509.922 176.76 507.701 157.931 508.548C139.102 509.395 103.787 504.609 144.036 494.385Z" fill="#EF902F"/>
<path d="M196.686 30.7719C182.075 12.8049 195.366 10.9933 203.838 12.3333C219.717 11.9034 228.635 36.9694 229.161 56.3772C229.686 75.785 214.951 53.2307 196.686 30.7719Z" fill="#FBFBFB"/>
</g>
<defs>
<clipPath id="clip0_12_559">
<rect width="446" height="536" fill="white"/>
</clipPath>
</defs>
</svg>
