<svg width="619" height="394" viewBox="0 0 619 394" fill="none" xmlns="http://www.w3.org/2000/svg">
<path d="M59.0196 82.1301C60.4484 49.9806 79.2619 42.5386 88.49 42.8363H120.639C143.859 42.8363 175.115 42.8363 202.799 32.1198C230.484 21.4033 300.141 18.7241 358.189 20.5102C416.237 22.2963 424.274 36.585 477.856 52.6597C531.439 68.7345 526.081 71.4136 561.802 100.884C597.524 130.354 579.663 130.354 590.38 150.894C601.096 171.434 592.166 191.974 570.733 243.771C549.3 295.567 514.471 310.749 477.856 333.075C441.242 355.401 418.023 347.364 389.445 365.225C360.868 383.085 246.558 369.69 202.799 358.08C159.04 346.471 88.49 292.888 59.0196 243.771C29.5492 194.653 26.87 166.076 34.9074 130.354C42.9448 94.6327 57.2335 122.317 59.0196 82.1301Z" fill="#F0CE92"/>
<path d="M59.0435 78.2043C60.4736 48.3502 79.3031 41.4396 88.5391 41.716H120.716C143.955 41.716 175.238 41.716 202.946 31.7646C230.654 21.8133 300.371 19.3254 358.469 20.984C416.566 22.6426 424.61 35.911 478.238 50.8381C531.867 65.7651 526.504 68.2529 562.256 95.6192C598.008 122.985 580.132 122.985 590.858 142.059C601.584 161.132 592.646 180.206 571.194 228.304C549.743 276.402 514.885 290.5 478.238 311.232C441.592 331.964 418.353 324.5 389.752 341.086C361.15 357.672 246.743 345.232 202.946 334.452C159.15 323.671 88.5391 273.914 59.0435 228.304C29.5479 182.694 26.8665 156.157 34.9108 122.985C42.955 89.8142 57.2559 115.522 59.0435 78.2043Z" fill="#FFDC9D" stroke="#FFDC9D"/>
<path d="M100.099 96.4188C112.245 72.8425 143.263 52.0644 157.254 44.6224C270.849 13.1873 451.66 49.9806 527.867 72.3067C533.523 77.9626 546.442 95.1686 552.872 118.745C560.909 148.215 526.974 148.215 527.867 176.793C528.76 205.37 530.546 230.375 516.257 248.236C501.968 266.097 433.204 282.172 386.766 282.172C340.328 282.172 370.691 252.701 329.611 282.172C288.531 311.642 216.195 286.637 157.254 275.027C98.3132 263.418 89.3828 201.798 100.099 170.541C110.816 139.285 84.9176 125.889 100.099 96.4188Z" fill="#F2F2E1"/>
<path d="M100.206 92.8382C112.355 70.7899 143.381 51.3584 157.375 44.3987C270.998 15.0009 451.854 49.4097 528.078 70.2888C533.736 75.5781 546.658 91.669 553.09 113.717C561.129 141.278 527.185 141.278 528.078 168.003C528.972 194.728 530.758 218.113 516.466 234.816C502.174 251.519 433.393 266.552 386.943 266.552C340.494 266.552 370.865 238.992 329.775 266.552C288.685 294.113 216.33 270.728 157.375 259.871C98.4199 249.014 89.4873 191.388 100.206 162.157C110.926 132.926 85.021 120.399 100.206 92.8382Z" fill="#FCFCFA" stroke="#FCFCFA"/>
<path d="M173.519 121.581C200.681 126.571 145.523 76.1343 114.548 50.292C87.9796 27.123 248.572 60.0943 322.732 32.4697C396.892 4.8451 329.88 90.3922 358.472 99.3034C387.064 108.215 454.969 60.9854 501.431 67.2232C547.893 73.461 398.679 142.968 471.052 169.701C543.425 196.435 520.194 153.661 547.893 189.306C575.591 224.951 459.437 201.782 493.39 235.644C527.342 269.506 443.354 220.495 398.679 189.306C354.005 158.117 387.957 232.08 434.419 296.24C480.881 360.4 318.265 219.604 275.377 220.495C232.49 221.386 222.661 322.082 211.046 296.24C199.43 270.398 242.318 212.475 248.572 184.85C254.827 157.226 142.247 213.366 96.6786 248.12C51.1105 282.873 100.253 199.999 203.898 169.701C307.543 139.404 148.501 147.424 88.6372 153.661C28.7731 159.899 139.566 115.343 173.519 121.581Z" fill="#FFFCE5"/>
<path d="M162.001 157.391L151.285 152.926C146.819 146.675 167.359 135.065 187.899 125.242C202.209 120.359 205.224 122.027 210.225 127.028C215.226 132.029 192.365 142.209 162.001 157.391Z" fill="#D499D2"/>
<path d="M212.095 105.194L208.258 90.5098C211.267 80.8467 239.787 92.7115 266.432 106.018C282.937 116.872 283.585 121.335 282.314 130.543C281.043 139.751 252.177 124.332 212.095 105.194Z" fill="#D89CD6"/>
<path d="M182.738 198.388L180.753 190.794C182.309 185.797 197.058 191.932 210.837 198.814C219.373 204.427 219.707 206.735 219.05 211.497C218.393 216.258 203.465 208.285 182.738 198.388Z" fill="#E3A6E1"/>
<path d="M212.095 101.622L208.258 86.9376C211.267 77.2745 239.787 89.1393 266.432 102.446C282.937 113.3 283.585 117.763 282.314 126.971C281.043 136.179 252.177 120.76 212.095 101.622Z" fill="#E3A6E1"/>
<path d="M162.001 154.467L151.285 150.001C146.819 143.75 167.359 132.14 187.899 122.317C202.209 117.434 205.224 119.102 210.225 124.103C215.226 129.104 192.365 139.285 162.001 154.467Z" fill="#E3A6E1"/>
<path d="M437.541 91.5192L454.803 89.2834C465.287 94.0528 447.32 124.524 428.015 152.676C413.096 169.743 407.931 169.837 397.689 167.093C387.446 164.349 409.498 133.992 437.541 91.5192Z" fill="#D998D7"/>
<path d="M437.541 86.2269L454.803 83.9911C465.287 88.7605 447.32 119.232 428.015 147.384C413.096 164.451 407.931 164.545 397.689 161.801C387.446 159.056 409.498 128.7 437.541 86.2269Z" fill="#E3A6E1"/>
<path d="M412.113 192.391L428.104 208.581C431.441 223.383 385.517 229.357 340.946 232.054C311.379 230.335 307.192 225.024 301.94 212.116C296.687 199.208 345.726 197.589 412.113 192.391Z" fill="#D993D7"/>
<path d="M412.595 192.536L428.508 208.338C431.937 222.679 386.728 228.022 342.822 230.209C313.663 228.269 309.486 223.096 304.187 210.568C298.889 198.04 347.209 196.935 412.595 192.536Z" fill="#E3A6E1"/>
<path d="M377.693 44.7443L385.962 53.1167C387.688 60.7715 363.939 63.8608 340.89 65.2554C325.599 64.3663 323.434 61.6201 320.718 54.9449C318.002 48.2697 343.361 47.4321 377.693 44.7443Z" fill="#E3A6E1"/>
</svg>
