<svg width="619" height="394" viewBox="0 0 619 394" fill="none" xmlns="http://www.w3.org/2000/svg">
<path d="M564.383 87.1922C562.954 55.0427 544.141 47.6007 534.913 47.8983H502.763C479.544 47.8983 448.288 47.8983 420.603 37.1818C392.919 26.4653 323.262 23.7862 265.214 25.5723C207.166 27.3584 199.129 41.647 145.546 57.7218C91.9638 73.7966 97.3221 76.4757 61.6004 105.946C25.8787 135.417 43.7395 135.417 33.0231 155.956C22.3066 176.496 31.2369 197.036 52.67 248.833C74.103 300.629 108.932 315.811 145.546 338.137C182.161 360.463 205.38 352.426 233.958 370.287C262.535 388.148 376.844 374.752 420.603 363.142C464.363 351.533 534.913 297.95 564.383 248.833C593.854 199.716 596.533 171.138 588.495 135.417C580.458 99.6948 566.169 127.379 564.383 87.1922Z" fill="#F0CE92"/>
<path d="M564.359 83.2664C562.929 53.4123 544.1 46.5016 534.864 46.7781H502.687C479.448 46.7781 448.165 46.7781 420.457 36.8267C392.749 26.8753 323.032 24.3875 264.934 26.0461C206.837 27.7046 198.793 40.9731 145.164 55.9001C91.536 70.8272 96.8988 73.315 61.1466 100.681C25.3944 128.047 43.2704 128.047 32.5448 147.121C21.8192 166.194 30.7572 185.268 52.2086 233.366C73.6599 281.464 108.518 295.562 145.164 316.294C181.81 337.026 205.049 329.562 233.651 346.148C262.253 362.734 376.66 350.294 420.457 339.514C464.253 328.733 534.864 278.976 564.359 233.366C593.855 187.756 596.536 161.219 588.492 128.047C580.448 94.8763 566.147 120.584 564.359 83.2664Z" fill="#FFDC9D" stroke="#FFDC9D"/>
<path d="M97.2069 97.9002C109.355 75.8519 140.381 56.4204 154.376 49.4607C267.998 20.063 448.854 54.4717 525.079 75.3508C530.736 80.6402 543.659 96.731 550.09 118.779C558.13 146.34 524.186 146.34 525.079 173.065C525.972 199.79 527.759 223.175 513.467 239.878C499.174 256.581 430.393 271.614 383.944 271.614C337.494 271.614 367.865 244.054 326.775 271.614C285.685 299.175 213.331 275.79 154.376 264.933C95.4204 254.076 86.4878 196.45 97.2069 167.219C107.926 137.988 82.0215 125.461 97.2069 97.9002Z" fill="#FCFCFA" stroke="#FCFCFA"/>
<path d="M182.8 130.612C208.846 139.792 162.262 81.3437 135.714 50.9719C113.099 23.9301 266.552 81.63 344.122 65.9529C421.691 50.2758 342.116 124.28 368.961 137.557C395.805 150.833 470.266 114.814 515.179 128.247C560.091 141.68 401.838 186.976 469.135 224.707C536.432 262.439 520.182 216.556 541.96 256.097C563.738 295.637 452.642 254.574 480.876 293.333C509.11 332.093 433.828 270.54 394.586 232.743C355.343 194.946 377.301 273.311 413.148 343.953C448.995 414.594 310.42 250.082 267.922 244.249C225.423 238.417 199.955 336.334 192.528 308.992C185.1 281.65 236.525 231.154 247.026 204.849C257.527 178.543 137.548 216.371 87.1016 243.565C36.6557 270.758 98.163 196.597 205.273 182.894C312.383 169.192 154.046 152.221 93.9433 149.012C33.8407 145.803 150.242 119.137 182.8 130.612Z" fill="#F8F4E3"/>
<ellipse cx="232.204" cy="179.562" rx="17" ry="10.5" fill="#91CD87"/>
<ellipse cx="232.204" cy="177.562" rx="17" ry="10.5" fill="#A1E097"/>
<ellipse cx="243.204" cy="140.562" rx="11" ry="6.5" fill="#91CD87"/>
<ellipse cx="243.204" cy="138.562" rx="11" ry="6.5" fill="#A1E097"/>
<ellipse cx="299.204" cy="98.5621" rx="9" ry="5.5" fill="#91CD87"/>
<ellipse cx="318.204" cy="210.062" rx="26" ry="16" fill="#91CD87"/>
<ellipse cx="318.204" cy="208.062" rx="26" ry="16" fill="#A1E097"/>
<ellipse cx="326.204" cy="142.562" rx="14" ry="8.5" fill="#91CD87"/>
<ellipse cx="326.204" cy="140.562" rx="14" ry="8.5" fill="#A1E097"/>
<ellipse cx="411.204" cy="154.562" rx="22" ry="13.5" fill="#91CD87"/>
<ellipse cx="411.204" cy="152.562" rx="22" ry="13.5" fill="#A1E097"/>
<path d="M320.416 95.1487L335.498 88.6898C349.457 90.8854 355.803 125.711 359.026 158.549C357.845 179.244 352.882 180.603 340.744 180.37C328.607 180.138 326.335 144.426 320.416 95.1487Z" fill="#DD6F4F"/>
<path d="M407.129 172.436L437.191 171.922C454.384 182.236 418.199 231.582 380.115 276.645C351.498 303.338 342.603 302.495 325.473 295.74C308.344 288.985 351.532 240.634 407.129 172.436Z" fill="#DD6F4F"/>
<path d="M407.706 170.806L437.328 170.011C454.164 179.817 418.028 227.904 380.064 271.867C351.608 297.968 342.853 297.241 326.044 290.877C309.235 284.512 352.261 237.319 407.706 170.806Z" fill="#EB724D"/>
<path d="M234.6 70.6409L250.147 70.3749C259.038 75.7087 240.325 101.227 220.631 124.531C205.832 138.335 201.232 137.899 192.373 134.406C183.515 130.913 205.849 105.909 234.6 70.6409Z" fill="#DD6F4F"/>
</svg>
