<svg width="446" height="536" viewBox="0 0 446 536" fill="none" xmlns="http://www.w3.org/2000/svg">
<g clip-path="url(#clip0_12_590)">
<path d="M197.959 532.314C337.223 533.529 308.462 487.4 302.15 401.846C298.022 345.9 305.416 257.995 311.466 204.259C312.443 195.585 313.384 187.801 314.237 181.185C314.553 178.796 308.922 178.671 288.904 158.358C263.88 132.968 60.3431 203.058 63.7189 213.869C67.0947 224.681 71.7211 474.931 66.5393 491.992C61.3575 509.052 58.6946 531.099 197.959 532.314Z" fill="#E4E4E4"/>
<path d="M193.525 524.288C328.838 525.046 301.043 479.088 295.189 393.698C291.361 337.858 298.833 250.075 304.888 196.409C305.865 187.746 306.805 179.972 307.655 173.365C307.97 170.978 302.5 170.872 283.115 150.659C258.884 125.392 60.8866 196.031 64.1314 206.814C67.3762 217.596 73.4193 468.739 68.3286 485.788C63.2379 502.837 58.2123 523.53 193.525 524.288Z" fill="#EBEBEB"/>
<path d="M294.618 468.505C285.305 381.621 297.96 220.742 306.722 174.096C259.335 145.218 134.479 147.217 77.9748 151.827C79.8108 257.462 84.781 470.067 89.9736 475.411C158.505 494.945 293.597 476.958 294.618 468.505Z" fill="#391D01"/>
<path d="M266.388 443.824C273.566 444.691 279.895 239.886 287.343 200.208C247.118 175.653 141.114 177.378 93.1406 181.31C94.6789 271.162 93.3596 394.834 114.729 450.475C124.367 475.568 256.619 451.487 266.388 443.824Z" fill="#572C01"/>
<path d="M410.305 316.074C422.907 401.242 348.23 453.882 306.917 470.047L303.561 433.228C309.336 435.66 321.914 438.046 333.484 435.282C371.073 416.934 397.086 356.612 375.788 287.456C358.75 232.13 321.592 235.133 305.143 243.55L309.726 205.609C344.838 207.77 394.554 209.613 410.305 316.074Z" fill="#E4E4E4"/>
<path d="M402.496 317C413.561 402.088 336.4 456.589 297.705 473.096L294.562 425.899C299.933 428.284 320.502 435.088 332.644 433.62C347.709 431.798 389.824 357.658 370.511 288.658C355.061 233.457 314.617 236.878 299.194 245.432L303.776 207.492C336.533 209.365 388.665 210.64 402.496 317Z" fill="#EBEBEB"/>
<path d="M290.472 119.533C276.143 108.959 282.296 109.703 253.824 87.0166C238.426 80.9952 233.829 84.6014 210.11 95.7817C186.391 106.962 171.451 118.682 116.98 113.143C62.5086 107.605 56.3187 128.705 50.8546 139.489C45.3905 150.273 50.7195 261.197 67.2227 270.993C83.7259 280.79 71.6541 242.918 78.2502 227.069L78.4111 226.682C84.9784 210.899 93.0756 191.44 106.824 197.228C120.684 203.064 129.343 251.967 143.946 251.65C158.55 251.333 150.315 211.844 153.463 198.7C156.611 185.555 166.023 215.302 171.123 224.761C176.222 234.221 184.449 179.034 191.936 177.337C199.424 175.641 204.434 194.452 214.52 201.393C224.606 208.333 235.809 175.874 243.668 171.101C251.527 166.328 271.203 184.31 308.782 178.966C346.361 173.621 334.678 136.837 327.917 128.218C321.155 119.598 304.8 130.107 290.472 119.533Z" fill="#E1DDDD"/>
<path d="M290.501 116.563C276.094 106.86 282.236 107.602 253.588 86.8114C238.166 81.2016 233.625 84.4003 210.11 94.2065C186.594 104.013 171.836 114.408 117.468 108.778C63.0997 103.148 57.1748 122.105 51.8532 131.767C46.5316 141.429 53.1371 241.525 69.7038 250.552C86.2706 259.579 73.7944 225.285 80.1855 211.068L80.3413 210.721C86.7045 196.564 94.5501 179.109 108.323 184.49C122.209 189.914 131.411 234.117 145.966 234.002C160.521 233.886 151.851 198.178 154.836 186.361C157.822 174.543 167.551 201.48 172.746 210.07C177.94 218.66 185.498 168.987 192.943 167.544C200.387 166.101 205.602 183.125 215.737 189.501C225.873 195.878 236.664 166.736 244.443 162.523C252.222 158.31 272.047 174.757 309.449 170.375C346.85 165.993 334.774 132.684 327.933 124.831C321.091 116.979 304.909 126.266 290.501 116.563Z" fill="#FBFBFB"/>
<path d="M261.35 433.852C270.651 415.416 274.329 289.073 275.743 228.555C274.245 213.392 275.798 210.875 268.806 208.47C258.427 208.257 249.723 456.897 261.35 433.852Z" fill="#F2F2F2"/>
<path d="M138.036 494.385C170.236 486.206 209.67 488.472 229.945 491.441C243.079 492.962 257.914 496.758 267.717 501.726C283.894 509.922 170.76 507.701 151.931 508.548C133.102 509.395 97.7871 504.609 138.036 494.385Z" fill="#572C01"/>
<path d="M261.486 29.9519C277.151 16.3224 268.378 11.7828 262.034 11.2167C251.03 7.41128 237.216 28.8843 230.993 46.8779C224.771 64.8715 241.906 46.9889 261.486 29.9519Z" fill="#FBFBFB"/>
<path d="M190.686 30.7719C176.075 12.8049 189.366 10.9933 197.838 12.3333C213.717 11.9034 222.635 36.9694 223.161 56.3772C223.686 75.785 208.951 53.2307 190.686 30.7719Z" fill="#FBFBFB"/>
</g>
<defs>
<clipPath id="clip0_12_590">
<rect width="446" height="536" fill="white"/>
</clipPath>
</defs>
</svg>
