<svg width="120" height="102" viewBox="0 0 120 102" fill="none" xmlns="http://www.w3.org/2000/svg">
<path fill-rule="evenodd" clip-rule="evenodd" d="M52.6254 67.8273L53.8337 69.1166L55.6006 69.0916C66.3213 68.9401 81.5671 67.3836 91.4849 62.8243C96.3406 60.5921 101.127 57.0795 102.19 51.527C103.268 45.8988 100.151 40.2143 94.354 34.6163C87.8216 28.3083 81.0159 23.0185 74.3829 18.6326C77.0418 18.7571 79.7968 18.9624 82.6509 19.2555C95.42 20.567 102.735 24.5392 106.732 29.4236C110.721 34.2975 112.005 40.8111 111.131 48.5093C109.446 63.3548 99.9169 80.7538 90.9005 93.0377C44.9453 86.5194 17.6412 60.3008 8.76031 46.8897C10.7011 42.1131 15.3325 35.5402 23.7639 29.9203C24.9418 32.2603 26.3687 34.7543 28.0609 37.4123C33.2802 45.6105 41.1898 55.625 52.6254 67.8273ZM20.6495 22.4C8.95854 29.7382 2.68151 39.0774 0.51463 46.2236L0 47.9209L0.912263 49.4418C9.88854 64.4072 40.349 94.7612 92.1986 101.282L94.4839 101.57L95.8796 99.7375C105.565 87.0232 117.063 67.1838 119.08 49.4116C120.101 40.4195 118.741 31.4652 112.923 24.3568C107.114 17.2589 97.4583 12.7342 83.4682 11.2974C75.2362 10.4519 67.7122 10.3016 60.8534 10.7084C49.88 5.06256 40.4393 2.02074 35.0368 0.940768L34.6617 0.86578L34.2792 0.863253C30.7641 0.840005 26.6747 1.69402 23.574 4.44853C20.2798 7.37495 18.8181 11.7957 19.5087 17.3068C19.7073 18.8918 20.0835 20.587 20.6495 22.4ZM30.7323 25.9676C31.7866 28.0979 33.1275 30.4742 34.8093 33.1159C39.4968 40.4788 46.6849 49.6751 57.2485 61.055C67.4969 60.7653 80.2798 59.1705 88.1434 55.5556C92.4071 53.5956 94.031 51.5998 94.3332 50.0221C94.6209 48.5201 94.0591 45.4526 88.7969 40.3712C78.9608 30.873 68.4807 23.843 59.1206 18.8335C47.3773 19.7604 38.0438 22.4589 30.7323 25.9676ZM45.8139 12.6493C38.9869 14.0551 33.0243 16.0746 27.8573 18.4866C27.6642 17.7017 27.53 16.9778 27.4466 16.3122C27.0068 12.8027 27.985 11.2307 28.8871 10.4294C29.9255 9.50697 31.6535 8.91188 33.8578 8.86568C36.691 9.4653 40.833 10.6868 45.8139 12.6493Z" fill="#2B2D42"/>
</svg>
