<svg width="117" height="103" viewBox="0 0 117 103" fill="none" xmlns="http://www.w3.org/2000/svg">
<path fill-rule="evenodd" clip-rule="evenodd" d="M89.0785 49.8561L90.3731 48.6534L90.3558 46.8865C90.3231 43.5421 90.1555 39.7568 89.8034 35.8295C98.2473 39.9166 104.637 44.33 108.666 47.8931C107.154 60.0171 93.6563 85.7959 44.4458 93.7099C31.7723 95.7481 23.6789 93.8044 18.5533 90.121C13.4388 86.4456 10.5131 80.4862 9.36464 72.8242C7.14997 58.0484 11.8512 38.776 17.3811 24.577C26.3712 23.4848 34.8695 23.3008 42.8153 23.7912C29.9578 41.676 23.782 59.0062 22.1163 67.1542L22.0397 67.529L22.0355 67.9115C21.997 71.4264 22.8333 75.5195 25.5743 78.6321C28.4864 81.939 32.9008 83.4199 38.4149 82.7532C43.768 82.1061 50.3871 79.4401 58.5572 74.2884C66.778 69.1047 76.8267 61.2386 89.0785 49.8561ZM48.6433 16.2356C38.0237 15.1761 26.4265 15.2392 13.9933 16.9492L11.7115 17.2631L10.8375 19.3942C4.7728 34.1821 -1.19827 56.3212 1.45301 74.01C2.79446 82.9598 6.42541 91.2571 13.8848 96.6175C21.3331 101.97 31.8308 103.841 45.716 101.608C100.219 92.8433 116.283 62.3546 116.803 46.4023L116.861 44.6297L115.586 43.3967C110.474 38.4516 101.251 31.9607 88.613 26.488C87.6573 20.844 86.2489 15.3861 84.2443 10.9752C82.0332 6.10991 78.5414 1.30838 72.9936 0.220831C67.3701 -0.881537 61.6721 2.21099 56.049 7.98373C53.4063 10.6969 50.9404 13.4583 48.6433 16.2356ZM52.1205 24.6939C38.2612 42.6093 31.7337 60.5147 30.0361 68.3676C30.0727 70.5721 30.6603 72.3027 31.5782 73.345C32.3756 74.2506 33.9433 75.2356 37.4547 74.8111C41.127 74.3671 46.5769 72.385 54.2902 67.5213C61.6733 62.8659 70.9007 55.7177 82.3264 45.2037C82.2283 41.102 81.9229 36.5934 81.3624 32.1556C73.0067 28.9029 63.1939 26.1641 52.1205 24.6939ZM79.7816 23.0506C73.2344 20.7764 65.9844 18.8429 58.1009 17.5065C59.2842 16.1841 60.5101 14.8692 61.7797 13.5658C66.8839 8.32572 69.9539 7.77723 71.4546 8.07141C73.0309 8.38042 75.0197 10.013 76.9612 14.2851C78.0997 16.7904 79.0318 19.792 79.7816 23.0506Z" fill="#2B2D42"/>
</svg>
