<svg width="111" height="104" viewBox="0 0 111 104" fill="none" xmlns="http://www.w3.org/2000/svg">
<path fill-rule="evenodd" clip-rule="evenodd" d="M22.4612 33.5748L21.1719 34.7831L21.1969 36.5499C21.3484 47.2707 22.9049 62.5165 27.4641 72.4343C29.6963 77.29 33.209 82.0763 38.7615 83.1398C44.3897 84.2177 50.0742 81.1005 55.6722 75.3034C74.7306 55.567 84.4945 33.3362 88.1155 20.9088C93.7386 21.9318 98.3922 23.2886 101.849 24.6493C104.574 36.5596 100.708 65.4001 57.1716 89.6678C45.9596 95.9176 37.6895 96.8592 31.6132 95.151C25.5501 93.4465 20.7626 88.8472 17.0628 82.04C9.92809 68.9128 7.75421 49.1948 8.09429 33.9608C16.5821 29.6496 24.9026 26.4674 32.8964 24.1831C29.6095 27.0094 26.1345 30.1323 22.4612 33.5748ZM47.2359 12.8273C33.2958 15.0319 18.0217 19.6526 2.30203 27.9517L0.265143 29.027L0.172738 31.3285C-0.468475 47.2988 1.4926 70.1451 10.0339 85.8603C14.3555 93.8116 20.6053 100.367 29.4482 102.852C38.2779 105.335 48.7826 103.503 61.0667 96.6555C109.285 69.7778 113.952 35.6336 108.985 20.4654L108.434 18.7799L106.814 18.0573C102.651 16.2 96.6855 14.3235 89.3192 12.9992C89.0165 10.0723 88.0276 6.98601 85.84 4.52336C82.9135 1.22915 78.4928 -0.2325 72.9816 0.458046C67.6313 1.12844 61.0239 3.82314 52.8762 9.01026C51.0842 10.1511 49.2053 11.4206 47.2359 12.8273ZM50.3499 20.4493C44.3342 24.8643 37.3376 30.6752 29.2335 38.1978C29.5232 48.4462 31.1179 61.2292 34.7329 69.0928C36.6929 73.3565 38.6887 74.9804 40.2664 75.2826C41.7684 75.5702 44.8359 75.0084 49.9173 69.7462C67.457 51.5826 76.58 31.2225 80.1052 19.7758C71.5454 18.8936 61.4486 18.8595 50.3499 20.4493ZM80.949 11.8219C76.1347 11.3242 70.8985 11.08 65.3184 11.2003C68.9158 9.50976 71.7669 8.67281 73.9763 8.39598C77.4858 7.95623 79.0577 8.93442 79.8591 9.83647C80.3087 10.3426 80.6806 11.0127 80.949 11.8219Z" fill="#2B2D42"/>
</svg>
