<svg width="952" height="774" viewBox="0 0 952 774" fill="none" xmlns="http://www.w3.org/2000/svg">
<path fill-rule="evenodd" clip-rule="evenodd" d="M420.462 514.666L429.748 524.576L443.327 524.384C525.723 523.22 642.898 511.257 719.123 476.216C756.442 459.06 793.228 432.063 801.401 389.388C809.686 346.131 785.728 302.442 741.173 259.418C690.967 210.937 638.661 170.281 587.681 136.573C608.117 137.529 629.292 139.107 651.227 141.36C749.366 151.44 805.584 181.969 836.308 219.509C866.966 256.968 876.831 307.029 870.116 366.195C857.165 480.293 783.928 614.015 714.631 708.425C361.434 658.328 151.585 456.82 83.3289 353.747C98.245 317.036 133.841 266.519 198.641 223.326C207.694 241.31 218.661 260.479 231.667 280.907C271.781 343.916 332.571 420.884 420.462 514.666ZM174.706 165.527C84.8524 221.926 36.6093 293.704 19.9554 348.628L16 361.673L23.0114 373.362C92 488.381 326.109 721.671 724.607 771.791L742.171 774L752.899 759.918C827.338 662.2 915.705 509.721 931.209 373.129C939.053 304.019 928.603 235.2 883.889 180.567C839.242 126.015 765.032 91.2397 657.509 80.1967C594.24 73.6988 536.413 72.5431 483.698 75.6696C399.361 32.2779 326.803 8.8996 285.282 0.599312L282.399 0.022964L279.459 0.00353191C252.443 -0.175111 221.013 6.38854 197.182 27.5588C171.864 50.0503 160.63 84.0267 165.937 126.383C167.464 138.565 170.355 151.594 174.706 165.527ZM252.199 192.947C260.302 209.319 270.607 227.583 283.533 247.887C319.559 304.475 374.805 375.155 455.993 462.617C534.759 460.391 633.004 448.134 693.441 420.351C726.21 405.286 738.691 389.948 741.014 377.822C743.224 366.278 738.907 342.702 698.463 303.648C622.866 230.648 542.319 176.618 470.381 138.117C380.126 145.241 308.392 165.98 252.199 192.947ZM368.11 90.5867C315.641 101.392 269.814 116.913 230.102 135.451C228.618 129.418 227.587 123.855 226.946 118.739C223.566 91.7659 231.084 79.6846 238.017 73.5258C245.997 66.4362 259.278 61.8627 276.22 61.5075C297.995 66.116 329.829 75.5037 368.11 90.5867Z" fill="#2B2D42"/>
</svg>
