<svg width="75" height="52" viewBox="0 0 75 52" fill="none" xmlns="http://www.w3.org/2000/svg">
<path fill-rule="evenodd" clip-rule="evenodd" d="M27.2615 11.118C36.0282 11.0181 44.7688 11.1513 53.4831 11.5179L53.8977 2.37964C49.5014 1.95482 45.0984 1.63532 40.6887 1.42112C36.2789 1.20693 31.8626 1.05106 27.4398 0.953503C23.0464 0.86574 18.6339 0.811962 14.2023 0.792171C9.79185 0.765945 5.37082 0.742936 0.93924 0.723145L1.02251 11.9626C9.77794 11.5094 18.5243 11.2278 27.2615 11.118ZM63.5783 31.0833C54.864 30.7168 46.1235 30.5835 37.3568 30.6835C28.6195 30.7933 19.8732 31.0748 11.1178 31.5281L11.0345 20.2886C15.4661 20.3084 19.8871 20.3314 24.2976 20.3576C28.7292 20.3774 33.1416 20.4312 37.535 20.5189C41.9579 20.6165 46.3742 20.7724 50.7839 20.9866C55.1937 21.2007 59.5967 21.5203 63.993 21.9451L63.5783 31.0833ZM73.6735 50.6485C64.9592 50.282 56.2187 50.1487 47.452 50.2487C38.7147 50.3584 29.9684 50.64 21.213 51.0932L21.1297 39.8538C25.5613 39.8736 29.9823 39.8966 34.3928 39.9228C38.8244 39.9426 43.2368 39.9964 47.6302 40.0841C52.0531 40.1817 56.4694 40.3375 60.8791 40.5517C65.2889 40.7659 69.6919 41.0854 74.0882 41.5103L73.6735 50.6485Z" fill="#F8F4E3"/>
</svg>
