<svg width="673" height="554" viewBox="0 0 673 554" fill="none" xmlns="http://www.w3.org/2000/svg">
<g clip-path="url(#clip0_1_3)">
<path d="M187.5 478C53.5 463 86.5 422 102.5 340.5C112.963 287.204 116.061 201.853 116.484 149.5C116.553 141.049 116.551 133.458 116.5 127C116.473 124.667 121.9 125.2 143.5 108C170.5 86.5 358 177.5 353.5 187.5C349 197.5 315.5 437.5 318.5 454.5C321.5 471.5 321.5 493 187.5 478Z" fill="#E4E4E4"/>
<path d="M192.694 470.801C62.5447 455.82 94.5963 414.872 110.136 333.476C120.299 280.247 123.308 195.005 123.719 142.719C123.785 134.278 123.784 126.697 123.734 120.247C123.708 117.917 128.979 118.45 149.958 101.271C176.182 79.7987 358.293 170.683 353.923 180.67C349.552 190.658 314.587 431.351 317.5 448.329C320.414 465.308 322.842 485.782 192.694 470.801Z" fill="#EBEBEB"/>
<path d="M102 405.446C121.039 323.015 127.552 166.911 124.546 121.059C173.446 98.8022 293.224 115.22 347 126.211C332.971 227.532 303.511 431.309 297.9 435.843C229.761 446.662 102 413.689 102 405.446Z" fill="#F89939"/>
<path d="M132 385C125 385 142.693 187.409 140.141 148.407C181.656 129.475 283.345 143.44 329 152.789C317.09 238.974 304 358 277 409C264.824 432 140.5 393.5 132 385Z" fill="#FFCD49"/>
<path d="M8.49999 245.5C-13.5 325.9 52.1667 385.167 90 405.5L97.5 370.5C91.6667 372.167 79.3 373 68.5 369C34.5 347 16.5 286 45 222C67.8 170.8 103.167 178 118 188V151C84 149 36 145 8.49999 245.5Z" fill="#E4E4E4"/>
<path d="M15.8984 247.297C-4.61518 327.798 63.2229 389.141 98.5 409.5L107 364.5C101.561 366.169 81 370.321 69.5 367.5C55.2308 364 23.3579 287.848 49.9323 223.768C71.1918 172.503 109.669 180.487 123.5 190.5V153.5C91.7972 151.497 41.5403 146.671 15.8984 247.297Z" fill="#EBEBEB"/>
<path d="M146.5 70.5C161.5 62 155.5 62 185.5 43.5C201 39.5 205 43.5 226.5 57C248 70.5 261 83.5 314 84.5C367 85.5 370.5 106.5 374.5 117.5C378.5 128.5 360.5 234.5 343.5 242C326.5 249.5 342.5 214.5 338 198.5L337.89 198.11C333.41 182.177 327.886 162.532 314 166.5C300 170.5 286 216.5 272 214.5C258 212.5 270.5 175.5 269 162.5C267.5 149.5 255 177 249 185.5C243 194 241.5 140 234.5 137.5C227.5 135 220.5 152.5 210 158C199.5 163.5 192.5 131 185.5 125.5C178.5 120 157.5 135 122 125.5C86.5 116 102 82 109.5 74.5C117 67 131.5 79 146.5 70.5Z" fill="#E1DDDD"/>
<path d="M146.816 67.6416C161.791 59.988 155.801 59.988 185.751 43.3302C201.226 39.7286 205.219 43.3302 226.683 55.4859C248.147 67.6416 261.126 79.3471 314.038 80.2475C366.949 81.148 370.444 100.057 374.437 109.961C378.43 119.866 360.46 215.311 343.488 222.064C326.517 228.817 342.49 197.302 337.998 182.896L337.888 182.544C333.415 168.198 327.901 150.51 314.038 154.082C300.061 157.684 286.084 199.103 272.107 197.302C258.131 195.502 270.61 162.186 269.112 150.48C267.615 138.775 255.136 163.537 249.146 171.19C243.156 178.844 241.658 130.221 234.67 127.97C227.681 125.719 220.693 141.476 210.211 146.429C199.728 151.381 192.74 122.117 185.751 117.165C178.763 112.213 157.798 125.719 122.357 117.165C86.9161 108.611 102.39 77.9965 109.878 71.2433C117.365 64.4902 131.841 75.2952 146.816 67.6416Z" fill="#FBFBFB"/>
<path d="M138 376C131.2 357.2 142.333 235.333 148 177C151.2 162.6 150 160 157 158.5C167 159.5 146.5 399.5 138 376Z" fill="#F2F2F2"/>
<path d="M249.5 448.5C219.5 436.9 181.333 434.5 161.5 435C148.7 434.937 134 436.864 124 440.5C107.5 446.5 216.5 457.5 234.5 460.5C252.5 463.5 287 463 249.5 448.5Z" fill="#FFCD49"/>
<path d="M483.98 485.533C621.776 465.327 586.266 424.167 566.878 340.6C554.199 285.953 547.994 197.957 545.712 143.929C545.344 135.208 545.078 127.372 544.903 120.704C544.849 118.294 539.266 119.036 516.363 102.042C487.734 80.7994 297.389 181.343 302.387 191.507C307.384 201.671 350.422 448.236 347.924 465.89C345.426 483.545 346.184 505.738 483.98 485.533Z" fill="#E4E4E4"/>
<path d="M478.365 478.284C612.186 458.234 577.657 417.094 558.748 333.618C546.382 279.03 540.272 191.143 538.005 137.184C537.639 128.473 537.374 120.647 537.198 113.988C537.143 111.581 531.72 112.317 509.459 95.3237C481.632 74.0821 296.846 174.316 301.71 184.472C306.573 194.627 351.148 441.856 348.739 459.485C346.329 477.114 344.544 498.334 478.365 478.284Z" fill="#EBEBEB"/>
<path d="M569.682 407.625C547.125 323.204 534.901 162.292 536.388 114.854C485.126 93.6024 362.061 114.77 306.937 128.011C324.988 232.108 362.579 441.423 368.532 445.905C439.251 454.672 569.973 416.134 569.682 407.625Z" fill="#F89939"/>
<path d="M537.994 387.576C545.22 387.329 519.993 183.985 521.254 143.634C477.732 125.554 373.253 143.553 326.454 154.812C341.785 243.359 359.492 365.765 389.16 417.46C402.54 440.773 529.519 396.65 537.994 387.576Z" fill="#FFCD49"/>
<path d="M660.564 239.222C686.107 321.442 620.409 384.935 582.072 407.258L573.096 371.392C579.177 372.907 591.972 373.332 602.979 368.822C637.301 344.914 653.733 281.311 622.058 216.25C596.718 164.201 560.464 172.88 545.504 183.725L544.201 145.531C579.227 142.269 628.635 136.448 660.564 239.222Z" fill="#E4E4E4"/>
<path d="M652.99 241.338C677.002 323.714 609.137 389.427 573.438 411.686L563.078 365.533C568.752 367.064 590.123 370.626 601.894 367.309C616.501 363.193 646.719 283.461 617.029 218.249C593.277 166.079 553.84 175.677 539.915 186.5L538.611 148.306C571.267 145.121 622.975 138.368 652.99 241.338Z" fill="#EBEBEB"/>
<path d="M511.944 63.4374C496.161 55.1916 502.354 54.9802 470.734 36.9402C454.593 33.3573 450.605 37.6273 428.887 52.3206C407.169 67.0138 394.207 80.8914 339.532 83.7911C284.857 86.6909 281.984 108.492 278.242 119.988C274.501 131.484 296.817 240.27 314.63 247.413C332.443 254.556 314.693 218.991 318.774 202.316L318.874 201.909C322.937 185.304 327.947 164.831 342.421 168.437C357.014 172.073 373.087 219.064 387.468 216.507C401.849 213.949 387.642 176.195 388.733 162.723C389.823 149.25 403.695 177.197 410.189 185.76C416.682 194.323 416.327 138.528 423.465 135.7C430.603 132.873 438.445 150.691 449.478 155.999C460.511 161.306 466.592 127.511 473.624 121.587C480.656 115.662 502.862 130.406 539.173 119.349C575.484 108.292 558.286 73.7405 550.279 66.2628C542.273 58.785 527.728 71.6832 511.944 63.4374Z" fill="#E1DDDD"/>
<path d="M511.517 60.4979C495.789 53.125 501.973 52.9139 470.469 36.7739C454.368 33.6012 450.373 37.4598 428.645 50.7641C406.916 64.0684 393.931 76.6089 339.344 79.4028C284.756 82.1966 281.815 101.839 278.042 112.204C274.269 122.569 296.182 220.46 313.939 226.834C331.697 233.207 314.097 201.238 318.227 186.208L318.328 185.841C322.439 170.874 327.509 152.421 341.945 155.62C356.5 158.846 372.387 201.109 386.751 198.758C401.116 196.406 387.06 162.455 388.193 150.319C389.327 138.183 403.081 163.304 409.534 170.994C415.987 178.683 415.82 128.439 422.954 125.869C430.089 123.299 437.858 139.318 448.853 144.061C459.848 148.804 466.031 118.35 473.071 112.991C480.11 107.633 502.227 120.836 538.511 110.757C574.794 100.679 557.742 69.6216 549.775 62.9143C541.807 56.207 527.245 67.8708 511.517 60.4979Z" fill="#FBFBFB"/>
<path d="M531.483 378.497C537.84 358.851 522.054 233.443 514.149 173.427C510.338 158.675 511.485 155.949 504.206 154.647C493.919 156.032 523.537 403.055 531.483 378.497Z" fill="#F2F2F2"/>
<path d="M418.94 457.265C449.499 444.234 488.813 440.412 509.304 440.229C522.515 439.713 537.757 441.184 548.208 444.585C565.452 450.197 453.322 465.393 434.846 469.124C416.371 472.855 380.74 473.555 418.94 457.265Z" fill="#FFCD49"/>
<path d="M220.152 20.6979C205.431 7.63426 216.33 4.29059 223.62 4.25171C236.878 1.71168 247.799 21.5107 250.903 37.716C254.008 53.9213 238.553 37.0273 220.152 20.6979Z" fill="#FBFBFB"/>
<path d="M425.043 22.2899C438.426 6.41458 429.06 3.27737 422.704 3.69319C411.246 1.62444 400.897 24.9656 397.514 43.7019C394.131 62.4381 408.314 42.1342 425.043 22.2899Z" fill="#FBFBFB"/>
<path d="M267.812 31.9322C254.574 9.25722 269.78 9.54398 279.038 12.5217C296.902 14.8074 302.525 44.4431 299.731 66.2774C296.938 88.1116 284.36 60.2758 267.812 31.9322Z" fill="#FBFBFB"/>
<path d="M201.802 408.353C204.856 434.431 191.036 428.081 183.744 421.646C168.289 412.4 175.001 382.992 186.301 364.102C197.602 345.212 197.985 375.755 201.802 408.353Z" fill="#FBFBFB"/>
<path d="M380.888 29.9887C392.564 9.9892 379.152 10.2421 370.986 12.8685C355.23 14.8845 350.271 41.0234 352.735 60.2814C355.198 79.5393 366.292 54.988 380.888 29.9887Z" fill="#FBFBFB"/>
</g>
<defs>
<clipPath id="clip0_1_3">
<rect width="673" height="554" fill="white"/>
</clipPath>
</defs>
</svg>
