<svg width="673" height="458" viewBox="0 0 673 458" fill="none" xmlns="http://www.w3.org/2000/svg">
<ellipse cx="337.498" cy="229.113" rx="333.498" ry="189.887" fill="#E2DECB"/>
<ellipse cx="337.498" cy="218.397" rx="333.498" ry="189.887" fill="#F8F4E3"/>
<path d="M83.816 90.1301C85.2449 57.9806 104.058 50.5386 113.286 50.8363H145.436C168.655 50.8363 199.912 50.8363 227.596 40.1198C255.28 29.4033 324.937 26.7241 382.985 28.5102C441.033 30.2963 449.07 44.585 502.653 60.6597C556.235 76.7345 550.877 79.4136 586.599 108.884C622.321 138.354 604.46 138.354 615.176 158.894C625.893 179.434 616.962 199.974 595.529 251.771C574.096 303.567 539.268 318.749 502.653 341.075C466.038 363.401 442.819 355.364 414.242 373.225C385.664 391.085 271.355 377.69 227.596 366.08C183.837 354.471 113.286 300.888 83.816 251.771C54.3456 202.653 51.6665 174.076 59.7039 138.354C67.7413 102.633 82.0299 130.317 83.816 90.1301Z" fill="#F0CE92"/>
<path d="M83.84 86.2043C85.2701 56.3502 104.1 49.4396 113.336 49.716H145.513C168.752 49.716 200.035 49.716 227.743 39.7646C255.451 29.8133 325.168 27.3254 383.265 28.984C441.362 30.6426 449.407 43.911 503.035 58.8381C556.663 73.7651 551.3 76.2529 587.053 103.619C622.805 130.985 604.929 130.985 615.654 150.059C626.38 169.132 617.442 188.206 595.991 236.304C574.539 284.402 539.681 298.5 503.035 319.232C466.389 339.964 443.15 332.5 414.548 349.086C385.946 365.672 271.539 353.232 227.743 342.452C183.946 331.671 113.336 281.914 83.84 236.304C54.3444 190.694 51.663 164.157 59.7072 130.985C67.7515 97.8142 82.0524 123.522 83.84 86.2043Z" fill="#FFDC9D" stroke="#FFDC9D"/>
<path d="M124.896 104.419C137.041 80.8425 168.06 60.0644 182.051 52.6224C295.646 21.1873 476.457 57.9806 552.663 80.3067C558.319 85.9626 571.239 103.169 577.668 126.745C585.706 156.215 551.77 156.215 552.663 184.793C553.556 213.37 555.342 238.375 541.054 256.236C526.765 274.097 458.001 290.172 411.563 290.172C365.124 290.172 395.488 260.701 354.408 290.172C313.328 319.642 240.991 294.637 182.051 283.027C123.11 271.418 114.179 209.798 124.896 178.541C135.612 147.285 109.714 133.889 124.896 104.419Z" fill="#F2F2E1"/>
<path d="M125.003 100.838C137.151 78.7898 168.177 59.3584 182.172 52.3987C295.795 23.0009 476.65 57.4096 552.875 78.2887C558.533 83.5781 571.455 99.6689 577.887 121.717C585.926 149.278 551.982 149.278 552.875 176.003C553.768 202.728 555.555 226.113 541.263 242.816C526.971 259.519 458.19 274.552 411.74 274.552C365.29 274.552 395.661 246.992 354.571 274.552C313.481 302.113 241.127 278.728 182.172 267.871C123.217 257.014 114.284 199.388 125.003 170.157C135.722 140.926 109.818 128.399 125.003 100.838Z" fill="#FCFCFA" stroke="#FCFCFA"/>
<path d="M201.252 130.912C228.132 135.92 173.547 85.3061 142.894 59.3734C116.602 36.1234 275.525 69.21 348.914 41.4888C422.303 13.7676 355.988 99.6139 384.282 108.556C412.577 117.498 479.777 70.1042 525.755 76.3638C571.734 82.6235 424.072 152.374 495.692 179.2C567.313 206.027 544.324 163.104 571.734 198.874C599.144 234.643 484.198 211.393 517.797 245.374C551.397 279.354 468.282 230.172 424.072 198.874C379.861 167.575 413.461 241.797 459.44 306.181C505.418 370.566 344.493 229.277 302.051 230.172C259.609 231.066 249.883 332.114 238.388 306.181C226.894 280.249 269.336 222.124 275.525 194.402C281.715 166.681 170.305 223.018 125.21 257.893C80.1157 292.768 128.747 209.604 231.315 179.2C333.883 148.797 176.494 156.845 117.252 163.104C58.0106 169.364 167.652 124.652 201.252 130.912Z" fill="#EDE9CA"/>
<path d="M198.315 129.581C225.478 134.571 170.319 84.1343 139.345 58.292C112.776 35.123 273.369 68.0943 347.529 40.4697C421.689 12.8451 354.677 98.3922 383.269 107.303C411.86 116.215 479.766 68.9854 526.227 75.2232C572.689 81.461 423.476 150.968 495.849 177.701C568.222 204.435 544.991 161.661 572.689 197.306C600.387 232.951 484.233 209.782 518.186 243.644C552.139 277.506 468.15 228.495 423.476 197.306C378.801 166.117 412.754 240.08 459.215 304.24C505.677 368.4 343.061 227.604 300.174 228.495C257.286 229.386 247.458 330.082 235.842 304.24C224.227 278.398 267.114 220.475 273.369 192.85C279.623 165.226 167.043 221.366 121.475 256.12C75.9068 290.873 125.049 207.999 228.694 177.701C332.339 147.404 173.298 155.424 113.434 161.661C53.5695 167.899 164.363 123.343 198.315 129.581Z" fill="#FFFCE5"/>
<path d="M186.798 165.391L176.081 160.926C171.616 154.675 192.156 143.065 212.696 133.242C227.006 128.359 230.021 130.027 235.022 135.028C240.023 140.029 217.161 150.209 186.798 165.391Z" fill="#D499D2"/>
<path d="M236.892 113.194L233.055 98.5098C236.064 88.8467 264.583 100.712 291.228 114.018C307.734 124.872 308.381 129.335 307.111 138.543C305.84 147.751 276.973 132.332 236.892 113.194Z" fill="#D89CD6"/>
<path d="M207.534 206.388L205.55 198.794C207.106 193.797 221.854 199.932 235.634 206.814C244.169 212.427 244.504 214.735 243.847 219.497C243.19 224.258 228.262 216.285 207.534 206.388Z" fill="#E3A6E1"/>
<path d="M236.892 109.622L233.055 94.9377C236.064 85.2745 264.583 97.1393 291.228 110.446C307.734 121.3 308.381 125.763 307.111 134.971C305.84 144.179 276.973 128.76 236.892 109.622Z" fill="#E3A6E1"/>
<path d="M186.798 162.467L176.081 158.001C171.616 151.75 192.156 140.141 212.696 130.317C227.006 125.434 230.021 127.102 235.022 132.103C240.023 137.104 217.161 147.285 186.798 162.467Z" fill="#E3A6E1"/>
<path d="M462.338 99.5192L479.599 97.2835C490.083 102.053 472.117 132.524 452.812 160.676C437.892 177.743 432.728 177.838 422.485 175.093C412.243 172.349 434.295 141.992 462.338 99.5192Z" fill="#D998D7"/>
<path d="M462.338 94.2269L479.599 91.9911C490.083 96.7605 472.117 127.232 452.812 155.384C437.892 172.451 432.728 172.545 422.485 169.801C412.243 167.056 434.295 136.7 462.338 94.2269Z" fill="#E3A6E1"/>
<path d="M436.91 200.391L452.9 216.581C456.237 231.383 410.313 237.357 365.742 240.054C336.175 238.335 331.989 233.025 326.736 220.117C321.484 207.208 370.522 205.589 436.91 200.391Z" fill="#D993D7"/>
<path d="M437.392 200.536L453.305 216.338C456.734 230.679 411.525 236.022 367.618 238.209C338.459 236.269 334.283 231.096 328.984 218.568C323.685 206.04 372.005 204.935 437.392 200.536Z" fill="#E3A6E1"/>
<path d="M402.49 52.7443L410.759 61.1167C412.484 68.7715 388.735 71.8608 365.686 73.2554C350.396 72.3663 348.231 69.6202 345.515 62.9449C342.798 56.2697 368.158 55.4321 402.49 52.7443Z" fill="#E3A6E1"/>
</svg>
