<svg width="952" height="774" viewBox="0 0 952 774" fill="none" xmlns="http://www.w3.org/2000/svg">
<path fill-rule="evenodd" clip-rule="evenodd" d="M706.354 374.934L716.038 365.936L715.908 352.718C715.664 327.699 714.41 299.382 711.776 270.003C774.944 300.578 822.745 333.594 852.888 360.249C841.57 450.947 740.599 643.796 372.461 702.999C277.652 718.246 217.107 703.706 178.763 676.151C140.501 648.656 118.614 604.074 110.023 546.755C93.4555 436.219 128.624 292.045 169.993 185.824C237.247 177.653 300.822 176.277 360.264 179.946C264.079 313.74 217.878 443.385 205.417 504.339L204.844 507.142L204.813 510.004C204.525 536.299 210.781 566.919 231.286 590.204C253.071 614.942 286.094 626.02 327.344 621.033C367.391 616.192 416.908 596.248 478.027 557.709C539.526 518.93 614.699 460.085 706.354 374.934ZM403.862 123.423C324.419 115.497 237.661 115.969 144.65 128.762L127.58 131.109L121.042 147.052C75.6722 257.678 31.0033 423.299 50.8373 555.626C60.8725 622.579 88.0352 684.65 143.838 724.751C199.558 764.792 278.09 778.792 381.963 762.087C789.695 696.516 909.867 468.434 913.76 349.097L914.193 335.836L904.656 326.612C866.407 289.618 797.416 241.061 702.871 200.12C695.721 157.898 685.185 117.068 670.189 84.0708C653.649 47.6739 627.527 11.7541 586.024 3.61831C543.955 -4.62835 501.329 18.5065 459.264 61.6917C439.493 81.9883 421.047 102.646 403.862 123.423ZM429.875 186.698C326.195 320.721 277.363 454.67 264.664 513.416C264.938 529.908 269.333 542.854 276.2 550.652C282.166 557.426 293.893 564.795 320.162 561.619C347.634 558.298 388.404 543.47 446.106 507.085C501.338 472.258 570.368 418.784 655.841 340.13C655.107 309.445 652.823 275.717 648.63 242.518C586.122 218.185 512.714 197.697 429.875 186.698ZM636.804 174.405C587.825 157.392 533.589 142.928 474.614 132.931C483.466 123.038 492.637 113.201 502.134 103.451C540.318 64.25 563.284 60.1468 574.511 62.3476C586.303 64.6592 601.181 76.8725 615.705 108.832C624.222 127.573 631.195 150.028 636.804 174.405Z" fill="#2B2D42"/>
</svg>
