<svg width="446" height="536" viewBox="0 0 446 536" fill="none" xmlns="http://www.w3.org/2000/svg">
<g clip-path="url(#clip0_12_544)">
<path d="M192.959 527.314C332.223 528.529 303.462 482.4 297.15 396.846C293.022 340.9 300.416 252.995 306.466 199.259C307.443 190.585 308.384 182.801 309.237 176.185C309.553 173.796 303.922 173.671 283.904 153.358C258.88 127.968 55.3431 198.058 58.7189 208.869C62.0947 219.681 66.7211 469.931 61.5393 486.992C56.3575 504.052 53.6946 526.099 192.959 527.314Z" fill="#E4E4E4"/>
<path d="M188.525 519.288C323.838 520.046 296.043 474.088 290.189 388.698C286.361 332.858 293.833 245.075 299.888 191.409C300.865 182.746 301.805 174.972 302.655 168.365C302.97 165.978 297.5 165.872 278.115 145.659C253.884 120.392 55.8866 191.031 59.1314 201.814C62.3762 212.596 68.4193 463.739 63.3286 480.788C58.2379 497.837 53.2123 518.53 188.525 519.288Z" fill="#EBEBEB"/>
<path d="M289.618 463.505C280.305 376.621 292.96 215.742 301.722 169.096C254.335 140.218 129.479 142.217 72.9748 146.827C74.8108 252.462 79.781 465.067 84.9736 470.411C153.505 489.945 288.597 471.958 289.618 463.505Z" fill="#F89939"/>
<path d="M261.388 438.824C268.566 439.691 274.895 234.886 282.343 195.208C242.118 170.653 136.114 172.378 88.1406 176.31C89.6789 266.162 88.3596 389.834 109.729 445.475C119.367 470.568 251.619 446.487 261.388 438.824Z" fill="#FFCD49"/>
<path d="M405.305 311.074C417.907 396.242 343.23 448.882 301.917 465.047L298.561 428.228C304.336 430.66 316.914 433.046 328.484 430.282C366.073 411.934 392.086 351.612 370.788 282.456C353.75 227.13 316.592 230.133 300.143 238.55L304.726 200.609C339.838 202.77 389.554 204.613 405.305 311.074Z" fill="#E4E4E4"/>
<path d="M397.496 312C408.561 397.088 331.4 451.589 292.705 468.096L289.562 420.899C294.933 423.284 315.502 430.088 327.644 428.62C342.709 426.798 384.824 352.658 365.511 283.658C350.061 228.457 309.617 231.878 294.194 240.432L298.776 202.492C331.533 204.365 383.665 205.64 397.496 312Z" fill="#EBEBEB"/>
<path d="M285.472 114.533C271.143 103.959 277.296 104.703 248.824 82.0166C233.426 75.9952 228.829 79.6014 205.11 90.7817C181.391 101.962 166.451 113.682 111.98 108.143C57.5086 102.605 51.3187 123.705 45.8546 134.489C40.3905 145.273 45.7195 256.197 62.2227 265.993C78.7259 275.79 66.6541 237.918 73.2502 222.069L73.4111 221.682C79.9784 205.899 88.0756 186.44 101.824 192.228C115.684 198.064 124.343 246.967 138.946 246.65C153.55 246.333 145.315 206.844 148.463 193.7C151.611 180.555 161.023 210.302 166.123 219.761C171.222 229.221 179.449 174.034 186.936 172.337C194.424 170.641 199.434 189.452 209.52 196.393C219.606 203.333 230.809 170.874 238.668 166.101C246.527 161.328 266.203 179.31 303.782 173.966C341.361 168.621 329.678 131.837 322.917 123.218C316.155 114.598 299.8 125.107 285.472 114.533Z" fill="#E1DDDD"/>
<path d="M285.501 111.563C271.094 101.86 277.236 102.602 248.588 81.8114C233.166 76.2016 228.625 79.4003 205.11 89.2065C181.594 99.0128 166.836 109.408 112.468 103.778C58.0997 98.1482 52.1748 117.105 46.8532 126.767C41.5316 136.429 48.1371 236.525 64.7038 245.552C81.2706 254.579 68.7944 220.285 75.1855 206.068L75.3413 205.721C81.7045 191.564 89.5501 174.109 103.323 179.49C117.209 184.914 126.411 229.117 140.966 229.002C155.521 228.886 146.851 193.178 149.836 181.361C152.822 169.543 162.551 196.48 167.746 205.07C172.94 213.66 180.498 163.987 187.943 162.544C195.387 161.101 200.602 178.125 210.737 184.501C220.873 190.878 231.664 161.736 239.443 157.523C247.222 153.31 267.047 169.757 304.449 165.375C341.85 160.993 329.774 127.684 322.933 119.831C316.091 111.979 299.909 121.266 285.501 111.563Z" fill="#FBFBFB"/>
<path d="M256.35 428.852C265.651 410.416 269.329 284.073 270.743 223.555C269.245 208.392 270.798 205.875 263.806 203.47C253.427 203.257 244.723 451.897 256.35 428.852Z" fill="#F2F2F2"/>
<path d="M133.036 489.385C165.236 481.206 204.67 483.472 224.945 486.441C238.079 487.962 252.914 491.758 262.717 496.726C278.894 504.922 165.76 502.701 146.931 503.548C128.102 504.395 92.7871 499.609 133.036 489.385Z" fill="#FFCD49"/>
<path d="M256.486 24.9519C272.151 11.3224 263.378 6.78276 257.034 6.21666C246.03 2.41128 232.216 23.8843 225.993 41.8779C219.771 59.8715 236.906 41.9889 256.486 24.9519Z" fill="#FBFBFB"/>
<path d="M211.672 25.7719C226.284 7.80491 212.993 5.99328 204.52 7.33333C188.641 6.90337 179.723 31.9694 179.197 51.3772C178.672 70.785 193.408 48.2307 211.672 25.7719Z" fill="#FBFBFB"/>
</g>
<defs>
<clipPath id="clip0_12_544">
<rect width="446" height="536" fill="white"/>
</clipPath>
</defs>
</svg>
