<svg width="619" height="394" viewBox="0 0 619 394" fill="none" xmlns="http://www.w3.org/2000/svg">
<path d="M66.3511 96.5C67.6153 68.0555 124.391 81.1002 143.851 84.6907C167.07 84.6907 169.466 42.8363 197.15 32.1198C224.834 21.4033 294.492 18.7241 352.539 20.5102C410.587 22.2963 418.625 36.585 472.207 52.6597C525.79 68.7345 520.431 71.4136 556.153 100.884C591.875 130.354 574.014 130.354 584.73 150.894C595.447 171.434 586.516 191.974 565.083 243.771C543.65 295.567 508.822 310.749 472.207 333.075C435.592 355.401 412.373 347.364 383.796 365.225C355.218 383.085 240.909 369.69 197.15 358.08C153.391 346.471 89.3212 290.117 59.8508 241C30.3804 191.883 30.8133 166.222 38.8507 130.5C46.8881 94.7783 64.565 136.687 66.3511 96.5Z" fill="#F0CE92"/>
<path d="M65.3508 91C91.8508 69 76.3508 74.5 101.351 66.5C101.351 59.5 145.76 50.8381 164.351 50.8381C187.59 50.8381 169.589 41.716 197.297 31.7646C225.005 21.8133 294.722 19.3254 352.819 20.984C410.917 22.6426 418.961 35.911 472.589 50.8381C526.218 65.7651 520.855 68.2529 556.607 95.6192C592.359 122.985 574.483 122.985 585.209 142.059C595.934 161.132 586.996 180.206 565.545 228.304C544.094 276.402 509.235 290.5 472.589 311.232C435.943 331.964 412.704 324.5 384.103 341.086C355.501 357.672 241.094 345.232 197.297 334.452C153.501 323.671 82.8899 273.914 53.3943 228.304C23.8987 182.694 29.3063 171.671 37.3506 138.5C45.3948 105.329 36.6053 114.864 65.3508 91Z" fill="#FFDC9D" stroke="#FFDC9D"/>
<path d="M94.4503 96.4188C106.596 72.8425 137.614 52.0644 151.605 44.6224C265.2 13.1873 446.011 49.9806 522.218 72.3067C527.874 77.9626 540.793 95.1686 547.223 118.745C555.26 148.215 521.325 148.215 522.218 176.793C523.111 205.37 524.897 230.375 510.608 248.236C496.319 266.097 427.555 282.172 381.117 282.172C334.679 282.172 365.042 252.701 323.962 282.172C282.882 311.642 210.546 286.637 151.605 275.027C92.6643 263.418 83.7338 201.798 94.4503 170.541C105.167 139.285 79.2686 125.889 94.4503 96.4188Z" fill="#A37365"/>
<path d="M94.5575 92.8382C106.706 70.7899 137.732 51.3584 151.726 44.3987C265.349 15.0009 446.205 49.4097 522.43 70.2888C528.087 75.5781 541.009 91.669 547.441 113.717C555.48 141.278 521.536 141.278 522.43 168.003C523.323 194.728 525.109 218.113 510.817 234.816C496.525 251.519 427.744 266.552 381.294 266.552C334.845 266.552 365.216 238.992 324.126 266.552C283.036 294.113 210.681 270.728 151.726 259.871C92.771 249.014 83.8384 191.388 94.5575 162.157C105.277 132.926 79.3721 120.399 94.5575 92.8382Z" fill="#B77A67"/>
<path d="M167.87 121.581C195.032 126.571 139.874 76.1343 108.9 50.292C82.3307 27.123 242.924 60.0943 317.083 32.4697C391.243 4.8451 324.231 90.3922 352.823 99.3034C381.415 108.215 449.32 60.9854 495.782 67.2232C542.244 73.461 393.03 142.968 465.403 169.701C537.776 196.435 514.545 153.661 542.244 189.306C569.942 224.951 453.788 201.782 487.741 235.644C521.693 269.506 437.705 220.495 393.03 189.306C348.356 158.117 382.308 232.08 428.77 296.24C475.232 360.4 312.616 219.604 269.728 220.495C226.841 221.386 217.012 322.082 205.397 296.24C193.781 270.398 236.669 212.475 242.924 184.85C249.178 157.226 136.598 213.366 91.0297 248.12C45.4615 282.873 94.6037 199.999 198.249 169.701C301.894 139.404 142.852 147.424 82.9882 153.661C23.1242 159.899 133.917 115.343 167.87 121.581Z" fill="#FCFCFA"/>
<path d="M241.283 101.014L238.082 100.264C236.544 98.7257 241.742 94.5279 247.023 90.829C250.794 88.7998 251.713 89.1256 253.343 90.2901C254.972 91.4546 249.059 95.3612 241.283 101.014Z" fill="#D499D2"/>
<path d="M322.069 113.07L320.512 109.588C320.859 107.069 328.418 108.833 335.572 111.033C340.111 113.042 340.456 114.122 340.521 116.457C340.586 118.792 332.794 116.161 322.069 113.07Z" fill="#FFDC9D"/>
<path d="M372.095 114.977L372.847 111.238C374.592 109.387 379.725 115.21 384.276 121.152C386.807 125.422 386.461 126.502 385.159 128.441C383.857 130.381 379.038 123.717 372.095 114.977Z" fill="#D89CD6"/>
<path d="M297.987 135.78L301.429 134.137C303.956 134.421 302.381 142.022 300.36 149.228C298.464 153.816 297.393 154.188 295.061 154.311C292.728 154.434 295.164 146.579 297.987 135.78Z" fill="#D89CD6"/>
<path d="M338.061 141.515L340.679 137.59C343.545 136.292 346.681 145.368 349.095 154.306C349.984 160.382 349.081 161.454 346.68 163.061C344.278 164.668 341.896 154.778 338.061 141.515Z" fill="#A6BEE3"/>
<path d="M359.06 182.305L364.802 185.07C367.075 188.661 355.524 194.559 344.021 199.466C336.06 201.796 334.456 200.789 331.855 197.879C329.255 194.968 342.038 189.925 359.06 182.305Z" fill="#E3A6E1"/>
<path d="M267.426 105.564L268.687 102.386C270.521 101.032 274.118 106.989 277.182 112.957C278.732 117.129 278.255 118.026 276.797 119.528C275.338 121.031 272.152 114.382 267.426 105.564Z" fill="#A6BEE3"/>
<path d="M241.147 100.071L237.946 99.3222C236.408 97.7835 241.606 93.5857 246.887 89.8868C250.658 87.8576 251.578 88.1834 253.207 89.3479C254.836 90.5124 248.924 94.419 241.147 100.071Z" fill="#E3A6E1"/>
<path d="M250.632 161.75L248.171 159.442C247.594 157.285 254.368 156.221 260.959 155.644C265.352 155.775 266.002 156.536 266.853 158.408C267.703 160.279 260.443 160.717 250.632 161.75Z" fill="#D499D2"/>
<path d="M271.177 189.402L269.205 184.99C269.645 181.798 279.223 184.034 288.287 186.821C294.039 189.367 294.476 190.735 294.558 193.694C294.64 196.653 284.767 193.318 271.177 189.402Z" fill="#FFDC9D"/>
<path d="M216.26 140.975L215.095 138.368C215.355 136.482 221.014 137.803 226.371 139.45C229.77 140.954 230.028 141.763 230.076 143.511C230.125 145.259 224.291 143.289 216.26 140.975Z" fill="#E3A6E1"/>
<path d="M270.991 188.28L269.018 183.868C269.458 180.676 279.036 182.912 288.101 185.699C293.853 188.245 294.289 189.613 294.371 192.572C294.454 195.531 284.581 192.196 270.991 188.28Z" fill="#FFDC9D"/>
<path d="M250.93 160.954L248.469 158.646C247.892 156.489 254.666 155.426 261.258 154.848C265.65 154.979 266.3 155.741 267.151 157.612C268.002 159.483 260.742 159.921 250.93 160.954Z" fill="#A6BEE3"/>
</svg>
